<?xml version="1.0" encoding="UTF-8"?>
<svg xmlns="http://www.w3.org/2000/svg" viewBox="0 0 1949 2756">
  <defs>
    <style>
      .cls-1, .cls-2, .cls-3, .cls-4, .cls-5, .cls-6, .cls-7, .cls-8 {
        fill: none;
      }

      .cls-2 {
        stroke: #b80dff;
      }

      .cls-2, .cls-3, .cls-4, .cls-5, .cls-6, .cls-7, .cls-8 {
        stroke-miterlimit: 10;
      }

      .cls-2, .cls-3, .cls-4, .cls-6, .cls-7 {
        stroke-width: 3px;
      }

      .cls-3 {
        stroke: #fff;
      }

      .cls-4 {
        stroke: #ccf422;
      }

      .cls-5 {
        stroke-width: 4px;
      }

      .cls-5, .cls-8 {
        stroke: #fffa3a;
      }

      .cls-6 {
        stroke: #ffd60d;
      }

      .cls-7 {
        stroke: #2aff0b;
      }

      .cls-8 {
        stroke-width: .5px;
      }
    </style>
  </defs>
  <g id="RERIX">
    <polygon id="plot7374" class="cls-4" points="858.22 877.99 898.02 847.96 947.59 901.36 942.67 919.35 874.15 898.67 858.22 877.99"/>
    <polygon id="plot7375" class="cls-4" points="945.14 810.54 968.94 829.17 947.59 901.36 898.02 847.96 945.14 810.54"/>
    <polygon id="plot7370" class="cls-4" points="830.1 867.68 915.68 801.68 848.08 778.86 824.15 858.84 830.1 867.68"/>
    <polygon id="plot7359" class="cls-4" points="756.42 875.04 791.79 893.99 807.29 832.33 771.13 822.3 756.42 875.04"/>
    <polygon id="plot7348" class="cls-4" points="789.27 758.77 823.36 769 807.29 832.33 771.13 822.3 789.27 758.77"/>
    <polygon id="plot7365" class="cls-4" points="877.53 750.58 798.75 725.73 809.36 684.92 890.41 708.71 877.53 750.58"/>
    <polygon id="plot7364" class="cls-4" points="819.7 648.45 900.66 672.4 890.41 708.71 809.36 684.92 819.7 648.45"/>
    <polygon id="plot7363" class="cls-4" points="829.2 613.75 910.37 636.76 900.66 672.4 819.7 648.45 829.2 613.75"/>
    <polygon id="plot7362" class="cls-4" points="839.27 578.13 920.44 600.3 910.37 636.76 829.2 613.75 839.27 578.13"/>
    <polygon id="plot7357" class="cls-4" points="949.88 492.32 869.25 469.77 880.08 433.09 959.13 455.82 949.88 492.32"/>
    <polygon id="plot7356" class="cls-4" points="889.45 397.17 970.25 420.1 959.13 455.82 880.08 433.09 889.45 397.17"/>
    <polygon id="plot7355" class="cls-4" points="900.47 362.59 980.35 384.14 970.25 420.1 889.45 397.17 900.47 362.59"/>
    <polygon id="plot7366" class="cls-4" points="1006.3 286.76 926.97 265 936.78 229.78 1016.05 251.57 1006.3 286.76"/>
    <polygon id="plot7367" class="cls-4" points="946.76 193.28 936.78 229.78 1016.05 251.57 1025.68 215.29 946.76 193.28"/>
    <polygon id="plot7349" class="cls-4" points="1051.37 220.88 1041.06 257.75 1119.73 279.74 1129.74 242.56 1051.37 220.88"/>
    <polygon id="plot7346" class="cls-4" points="983.34 768.95 944.89 758.57 962.85 695.68 1001.72 705.51 983.34 768.95"/>
    <polygon id="plot7372" class="cls-4" points="922.59 684.92 932.64 647.01 1011.4 669.53 1001.72 705.51 922.59 684.92"/>
    <polygon id="plot7344" class="cls-4" points="943.19 610.8 932.64 647.01 1011.4 669.53 1020.99 632.67 943.19 610.8"/>
    <polygon id="plot7343" class="cls-4" points="953.23 574.23 1031.12 595.65 1020.99 632.67 943.19 610.8 953.23 574.23"/>
    <polygon id="plot7342" class="cls-4" points="962.93 538.01 953.23 574.23 1031.12 595.65 1041.74 560.19 962.93 538.01"/>
  </g>
  <g id="ERLAN">
    <polygon id="plot7373" class="cls-3" points="843.91 919.35 819.25 907.76 858.22 877.99 874.15 898.67 942.67 919.35 934.87 947.72 843.91 919.35"/>
    <polygon id="plot7345" class="cls-3" points="904.94 747.94 945.63 758.77 962.85 695.68 922.59 684.92 904.94 747.94"/>
    <polygon id="plot7360" class="cls-3" points="920.44 600.3 839.27 578.13 850.68 541.73 930.13 563.92 920.44 600.3"/>
    <polygon id="plot7338" class="cls-3" points="982.73 466.71 1061.43 487.64 1072.48 450.27 993.2 428.5 982.73 466.71"/>
    <polygon id="plot7340" class="cls-3" points="1051.5 523.5 973.75 501.76 982.73 466.71 1061.43 487.64 1051.5 523.5"/>
    <polygon id="plot7341" class="cls-3" points="962.93 538.01 973.75 501.76 1051.5 523.5 1041.74 560.19 962.93 538.01"/>
    <polygon id="plot7339" class="cls-3" points="1013.23 355.23 1093.74 378.51 1083.75 414.74 1003.46 392.19 1013.23 355.23"/>
    <polygon id="plot7353" class="cls-3" points="920.11 289.56 1000.4 312.6 990.26 348.71 910.48 326.53 920.11 289.56"/>
    <polygon id="plot7354" class="cls-3" points="980.11 384.99 900.47 362.59 910.48 326.53 990.26 348.71 980.11 384.99"/>
    <polygon id="plot7368" class="cls-3" points="946.76 193.28 1025.68 215.29 1036.17 178.84 956.56 157.34 946.76 193.28"/>
    <polygon id="plot7369" class="cls-3" points="968.94 111.44 1048.89 132.93 1036.17 178.84 956.56 157.34 968.94 111.44"/>
    <polygon id="plot7371" class="cls-3" points="984.07 61.06 1059.55 96.31 1048.89 132.93 968.94 111.44 984.07 61.06"/>
    <polygon id="plot7347" class="cls-3" points="1109.93 315.77 1032.11 295.19 1041.06 257.75 1119.73 279.74 1109.93 315.77"/>
    <polygon id="plot7350" class="cls-3" points="1051.37 220.88 1129.74 242.56 1140.47 205.94 1061.57 184.59 1051.37 220.88"/>
    <polygon id="plot7351" class="cls-3" points="1072 148.65 1151.44 170.27 1140.47 205.94 1061.57 184.59 1072 148.65"/>
    <polygon id="plot7352" class="cls-3" points="1084.17 106.88 1158.85 141.97 1151.44 170.27 1072 148.65 1084.17 106.88"/>
    <polygon id="plot7376" class="cls-3" points="1023.3 319.08 1103.76 340.92 1093.74 378.51 1013.23 355.23 1023.3 319.08"/>
    <polygon id="plot7377" class="cls-3" points="993.2 428.5 1003.46 392.19 1083.75 414.74 1072.48 450.27 993.2 428.5"/>
    <polygon id="plot7360-2" data-name="plot7360" class="cls-3" points="860.78 506.38 940.6 529.13 930.13 563.92 850.68 541.73 860.78 506.38"/>
    <polygon id="plot7358" class="cls-3" points="869.25 469.77 949.88 492.32 940.6 529.13 860.78 506.38 869.25 469.77"/>
  </g>
  <g id="U_REKI" data-name="U REKI">
    <polygon id="plot6954" class="cls-2" points="1148.21 2392.54 1200.71 2394.14 1221.1 2338.08 1159.09 2335.68 1148.21 2392.54"/>
    <polygon id="plot6952" class="cls-2" points="1167.78 2290.57 1234.23 2299.59 1221.1 2338.08 1159.09 2335.68 1167.78 2290.57"/>
    <polygon id="plot6951" class="cls-2" points="1176.48 2244.86 1249.74 2257.01 1234.23 2299.59 1167.78 2290.57 1176.48 2244.86"/>
    <polygon id="plot6950" class="cls-2" points="1184.41 2197.8 1266.36 2212.4 1249.74 2257.01 1176.48 2244.86 1184.41 2197.8"/>
    <polygon id="plot6949" class="cls-2" points="1193.08 2156.17 1278.91 2174.23 1266.36 2212.4 1184.41 2197.8 1193.08 2156.17"/>
    <polygon id="plot6948" class="cls-2" points="1200.29 2118.93 1273.97 2131.14 1282.65 2167.92 1278.91 2174.23 1193.08 2156.17 1200.29 2118.93"/>
    <polygon id="plot6947" class="cls-2" points="1209.27 2068.31 1267.82 2078.48 1273.97 2131.14 1200.29 2118.93 1209.27 2068.31"/>
  </g>
  <g id="OTHER">
    <polygon id="otherKPP" class="cls-1" points="537.44 1480.29 452.3 1414.45 445.94 1447.37 365.46 1423.59 362.5 1452.11 438.74 1473.41 429.85 1504.54 537.44 1480.29"/>
    <path id="otherPOD" class="cls-5" d="M74.63,480.79l242.05,143.48,63.63,38.99s87.34,34.72-62.38,167.55c-43.67,36.87,67.37,116.91,67.37,116.91l210.86,162.89s77.36,47.93-9.98,123.29c-27.45,89.33-23.71,107.27-23.71,107.27l11.81,77.96-23.69,61.16,23.69,6.92"/>
    <polygon id="otherMOST" class="cls-8" points="1324.91 1792.95 1347.4 1798.43 1417.7 1798.43 1434.01 1790.55 1434.01 1782.68 1417.7 1776.1 1348.53 1776.1 1324.91 1785.45 1324.91 1792.95"/>
    <polygon id="otherLES" class="cls-8" points="780.21 2725.62 950.92 2606.36 995.16 2341.38 1140.26 2534.17 1208.76 2446.69 1293.51 2244.86 1282.65 1875.14 1240.48 1800.82 1266.87 1744.67 1282.65 1665.5 1273.97 1345.34 1240.48 1186.41 1199.4 1134.41 1131.1 1175.78 1141.88 1287.2 1042.15 1290.7 1059.66 1208.58 1093.95 1093.24 1112.24 1067.15 1093.95 810.54 1141.88 695.68 1189.86 616.22 1240.33 433.09 1312.15 205.94 1400.35 229.78 1306.51 607.44 1385.44 616.22 1571.79 341.65 1901 242.56 1919.63 265.87 1919.63 509.43 1539.49 663.26 1455.01 760.23 1405.32 822.3 1322.08 986.4 1304.69 1127.29 1325.81 1266.26 1332.02 1768.35 1330.78 1902.28 1341.96 2055.88 1319.6 2244.86 1282.65 2405.54 1249.74 2475.07 1109.4 2628.19 954.33 2725.62 780.21 2725.62"/>
    <polygon id="otherPsekups" class="cls-8" points="1919.12 647.01 1756.81 684.92 1611.43 747.94 1538.04 793.39 1495.7 839.83 1460.41 893.99 1427.95 947.72 1405.37 1031.75 1403.3 1127.29 1422.05 1282.58 1434.01 1350.97 1427.92 1589.09 1416.16 1649.79 1417.7 1776.1 1428.87 2207.39 1419.79 2317.38 1404.83 2396.47 1386.67 2465.91 1347.14 2516.12 1299.07 2566.33 1245.66 2607.99 1196.66 2642.71 1154.85 2668.22 1074.84 2726.03 954.33 2725.62 1138.66 2609.06 1175.15 2583.95 1227.5 2539.83 1275.03 2492.26 1301.21 2451.06 1323.11 2392.54 1340.73 2314.32 1351.42 2206.32 1358.36 2105.37 1362.1 2050.85 1363.17 1978.24 1356.22 1894.38 1347.4 1798.43 1347.14 1651 1349.92 1595.5 1351.95 1382.38 1343.4 1299.89 1335.93 1146.59 1333.79 1114.01 1338.06 1068.07 1352.48 995.43 1373.85 927.06 1430.47 826.11 1483.88 760.94 1515.93 728.89 1581.1 684.56 1711.96 630.08 1830.54 600.7 1876.47 591.62 1921.34 580.4 1919.12 647.01"/>
    <polygon id="otherKirpich" class="cls-8" points="1877.21 2725.62 1919.63 2725.62 1861.35 2449.55 1762.24 2230.91 1694.84 2174.23 1655.2 2137.45 1594.41 2099.73 1577.23 2076.67 1484.73 1868.73 1455.65 1879.41 1548.16 2087.34 1564.02 2118.93 1643.3 2174.23 1733.16 2248.14 1838.88 2469.2 1877.21 2725.62"/>
  </g>
  <g id="XOA">
    <polygon id="plot6955" class="cls-7" points="1101.23 2469.2 1131.58 2516.11 1146.17 2521.24 1179.28 2451.06 1138.66 2431.01 1101.23 2469.2"/>
    <polygon id="plot6956" class="cls-7" points="1148.21 2392.54 1200.71 2394.14 1179.28 2451.06 1138.66 2431.01 1148.21 2392.54"/>
    <polygon id="plot6923" class="cls-7" points="1083.24 2437.59 1119.35 2406.03 1125.49 2354.89 1083.24 2346.68 1078.11 2388.59 1058.91 2405.54 1083.24 2437.59"/>
    <polygon id="plot6924" class="cls-7" points="1014.36 2350.33 1028.34 2335.68 1083.24 2346.68 1078.11 2388.59 1058.91 2405.54 1014.36 2350.33"/>
    <polygon id="plot6916" class="cls-7" points="1132.61 2331.28 1145.07 2272.45 1104.67 2264.47 1092.2 2324.46 1132.61 2331.28"/>
    <polygon id="plot6917" class="cls-7" points="1062.84 2256.21 1050.18 2317.38 1092.2 2324.46 1104.67 2264.47 1062.84 2256.21"/>
    <polygon id="plot6918" class="cls-7" points="1010.8 2310.48 1022 2248.14 1062.84 2256.21 1050.18 2317.38 1010.8 2310.48"/>
    <polygon id="plot6919" class="cls-7" points="978.42 2239.53 969.24 2299.55 991.44 2319.68 1010.8 2310.48 1022 2248.14 978.42 2239.53"/>
    <polygon id="plot6921" class="cls-7" points="934.73 2230.91 923.42 2293.04 969.05 2300.78 978.42 2239.53 934.73 2230.91"/>
    <polygon id="plot6922" class="cls-7" points="896.06 2223.27 885.25 2285.85 923.42 2293.04 934.73 2230.91 896.06 2223.27"/>
    <polygon id="plot6910" class="cls-7" points="1157.52 2210.63 1145.07 2272.45 1104.67 2264.47 1116.75 2202.08 1157.52 2210.63"/>
    <polygon id="plot6911" class="cls-7" points="1062.84 2256.21 1074.84 2193.74 1116.75 2202.08 1104.67 2264.47 1062.84 2256.21"/>
    <polygon id="plot6913" class="cls-7" points="978.42 2239.53 989.33 2176.72 1033.37 2185.49 1022 2248.14 978.42 2239.53"/>
    <polygon id="plot6914" class="cls-7" points="947.96 2168.49 934.73 2230.91 978.42 2239.53 989.33 2176.72 947.96 2168.49"/>
    <polygon id="plot6915" class="cls-7" points="908.44 2160.63 896.06 2223.27 934.73 2230.91 947.96 2168.49 908.44 2160.63"/>
    <polygon id="plot6925" class="cls-7" points="885.25 2285.85 877.97 2327.3 940.48 2338.08 969.05 2300.78 885.25 2285.85"/>
    <polygon id="plot6926" class="cls-7" points="871.89 2359.84 939.04 2374.72 940.48 2338.08 877.97 2327.3 871.89 2359.84"/>
    <polygon id="plot6927" class="cls-7" points="937.87 2412.11 870.8 2399.35 867.68 2379.79 871.89 2359.84 939.04 2374.72 937.87 2412.11"/>
    <polygon id="plot6928" class="cls-7" points="935.21 2449.55 937.87 2412.11 870.8 2399.35 876.58 2439.79 935.21 2449.55"/>
    <polygon id="plot6929" class="cls-7" points="884.73 2492.26 934.73 2498.62 935.21 2449.55 876.58 2439.79 884.73 2492.26"/>
    <polygon id="plot6930" class="cls-7" points="919.49 2587.41 934.36 2570.07 934.73 2498.62 884.73 2492.26 895.63 2574.7 919.49 2587.41"/>
    <polygon id="plot6932" class="cls-7" points="822.2 2628.19 895.63 2574.7 919.49 2587.41 892.66 2616.93 826.25 2668.22 822.2 2628.19"/>
    <polygon id="plot6933" class="cls-7" points="806.74 2556.43 869.98 2534.17 872.63 2552.15 853.47 2566.31 872.63 2590.78 822.2 2628.19 806.74 2556.43"/>
    <polygon id="plot6934" class="cls-7" points="800.25 2509.41 862.31 2494.96 869.98 2534.17 806.74 2556.43 800.25 2509.41"/>
    <polygon id="plot6937" class="cls-7" points="780.21 2394.72 842.86 2377.47 849.19 2418.31 786.69 2434.82 780.21 2394.72"/>
    <polygon id="plot6938" class="cls-7" points="771.35 2341.38 845.51 2355.95 842.86 2377.47 780.21 2394.72 771.35 2341.38"/>
    <polygon id="plot6939" class="cls-7" points="763.11 2296.84 853.47 2321.75 845.51 2355.95 771.35 2341.38 763.11 2296.84"/>
    <polygon id="plot6944" class="cls-7" points="860.51 2293.04 869.55 2245.2 827.17 2235.59 804.56 2279.61 860.51 2293.04"/>
    <polygon id="plot6943" class="cls-7" points="770.62 2216.08 810.5 2196.82 827.17 2235.59 804.56 2279.61 776.51 2272.96 770.62 2216.08"/>
    <polygon id="plot6946" class="cls-7" points="758.69 2143.71 816.13 2103.07 835.46 2141.92 763.2 2176.24 758.69 2143.71"/>
    <polygon id="plot6941" class="cls-7" points="886.16 2159.57 878.49 2199.83 828.57 2187.29 816.08 2151.45 835.46 2141.92 839.28 2147.72 886.16 2159.57"/>
    <polygon id="plot6891" class="cls-7" points="1118.28 2177.32 1130.35 2120.11 1170.89 2126.37 1159.92 2184.38 1118.28 2177.32"/>
    <polygon id="plot6906" class="cls-7" points="1141.79 2058.73 1130.35 2120.11 1170.89 2126.37 1182.1 2067.09 1141.79 2058.73"/>
    <polygon id="plot6905" class="cls-7" points="1103.79 2050.85 1091.85 2111.74 1130.57 2118.93 1141.79 2058.73 1103.79 2050.85"/>
    <polygon id="plot6892" class="cls-7" points="1079.31 2169.79 1091.85 2111.74 1130.57 2118.93 1118.28 2177.32 1079.31 2169.79"/>
    <polygon id="plot6895" class="cls-7" points="956.28 2145.44 968.44 2087.34 1009.01 2095.31 997.3 2153.5 956.28 2145.44"/>
    <polygon id="plot6902" class="cls-7" points="981.57 2025.5 968.44 2087.34 1009.01 2095.31 1021.89 2033.87 981.57 2025.5"/>
    <polygon id="plot6901" class="cls-7" points="927.09 2079.53 940.01 2016.88 981.57 2025.5 968.44 2087.34 927.09 2079.53"/>
    <polygon id="plot6896" class="cls-7" points="916.17 2137.45 928.53 2079.8 968.44 2087.34 956.28 2145.44 916.17 2137.45"/>
    <polygon id="plot6907" class="cls-7" points="916.17 2137.45 870.4 2127 876.15 2084.45 904.98 2074.82 927.68 2076.67 928.53 2079.8 916.17 2137.45"/>
    <path id="plot6900" class="cls-7" d="M940.01,2016.88l-15.84-2.81s-28.97,32.98-60.11,28.3c15.1,41.08,15.67,42.03,15.67,42.03l25.26-9.57,22.7,1.85,12.33-59.79Z"/>
    <polygon id="plot6878" class="cls-7" points="1057.07 2014.69 1097.68 2022.81 1109.4 1963.52 1068.8 1955.71 1057.07 2014.69"/>
    <polygon id="plot6882" class="cls-7" points="1081.47 1891.98 1122.91 1901.14 1109.4 1963.52 1068.8 1955.71 1081.47 1891.98"/>
    <polygon id="plot6877" class="cls-7" points="1161.31 1909.62 1149.47 1971.23 1109.4 1963.52 1122.91 1901.14 1161.31 1909.62"/>
    <polygon id="plot6874" class="cls-7" points="1208.28 1920 1198.43 1980.65 1149.47 1971.23 1161.31 1909.62 1208.28 1920"/>
    <polygon id="plot6880" class="cls-7" points="1268.65 2055.88 1272.7 1999.94 1198.43 1980.65 1187.44 2040.04 1268.65 2055.88"/>
    <polygon id="plot6875" class="cls-7" points="1208.28 1920 1264.82 1932.25 1272.7 1999.94 1198.43 1980.65 1208.28 1920"/>
    <polygon id="plot6884" class="cls-7" points="1030.41 2014.97 1039.22 1969.86 979.16 1958.02 970.35 2000.85 1030.41 2014.97"/>
    <polygon id="plot6883" class="cls-7" points="1047.01 1930.27 987.92 1917.78 995.1 1875.14 1055.59 1886.71 1047.01 1930.27"/>
    <polygon id="plot6963" class="cls-7" points="979.16 1958.02 987.92 1917.78 1047.01 1930.27 1039.22 1969.86 979.16 1958.02"/>
    <polygon id="plot6885" class="cls-7" points="932.44 1917.78 942.63 1865.1 995.1 1875.14 985.94 1926.87 932.44 1917.78"/>
    <polygon id="plot6886" class="cls-7" points="895.42 1856.69 942.63 1865.1 932.44 1917.78 917.16 1917.78 896.94 1909.26 885.59 1901.83 895.42 1856.69"/>
    <path id="plot6966" class="cls-7" d="M970.77,1999.82l-36.58-7.97s16.21-39.32-17.03-74.06h15.28l53.5,9.09-15.17,72.94Z"/>
    <path id="plot6888" class="cls-7" d="M838.85,1906.06l-18.5-63.91,75.06,14.54-9.83,45.14s-31.61-6.71-46.73,4.23Z"/>
    <polygon id="plot6973" class="cls-7" points="1083.6 1868.73 1135.36 1879.41 1153.86 1832.1 1097 1805.66 1083.6 1868.73"/>
    <polygon id="plot6962" class="cls-7" points="1234.93 1868.73 1154.26 1831.06 1175.52 1776.1 1213.46 1792.12 1240.48 1849.58 1234.93 1868.73"/>
    <polygon id="plot6972" class="cls-7" points="1097 1805.66 1120.36 1753.8 1175.52 1776.1 1153.86 1832.1 1097 1805.66"/>
    <polygon id="plot6974" class="cls-7" points="1259.34 1904.7 1234.93 1868.73 1154.26 1831.06 1135.36 1879.41 1259.34 1904.7"/>
    <polygon id="plot6942" class="cls-7" points="1060.9 1864.57 1075.17 1800.82 1035.52 1783.91 1019 1856.69 1060.9 1864.57"/>
    <polygon id="plot6971" class="cls-7" points="1097.69 1745.42 1060.32 1729.47 1039.13 1785.45 1075.17 1800.82 1097.69 1745.42"/>
    <polygon id="plot6854" class="cls-7" points="1019 1856.69 982.94 1850.75 997.71 1770.01 1035.52 1783.91 1019 1856.69"/>
    <polygon id="plot6876" class="cls-7" points="1039.13 1785.45 1060.32 1729.47 1010.94 1708.12 989.18 1766.1 1039.13 1785.45"/>
    <polygon id="plot6953" class="cls-7" points="982.94 1850.75 943.83 1843.23 958.8 1760.44 989.55 1765.11 997.71 1770.01 982.94 1850.75"/>
    <polygon id="plot6865" class="cls-7" points="1010.94 1708.12 969.43 1694.52 948.6 1758.34 989.55 1765.11 1010.94 1708.12"/>
    <polygon id="plot6968" class="cls-7" points="969.43 1694.52 931.74 1680.87 903.39 1749.02 948.6 1758.34 969.43 1694.52"/>
    <polygon id="plot6887" class="cls-7" points="931.74 1680.87 890.86 1667.29 870.76 1744.67 903.39 1749.02 931.74 1680.87"/>
    <polygon id="plot6898" class="cls-7" points="890.86 1667.29 858.34 1649.79 826.23 1739.33 870.76 1744.67 890.86 1667.29"/>
    <polygon id="plot6909" class="cls-7" points="837.11 1822.29 817.81 1818.54 795.62 1734.06 853.71 1742.29 837.11 1822.29"/>
    <polygon id="plot6897" class="cls-7" points="746.43 1944.59 798.22 1917.78 770.59 1859.97 719.82 1884.62 746.43 1944.59"/>
    <polygon id="plot6899" class="cls-7" points="741.34 1839.02 789.26 1820.97 813.59 1892.18 814.68 1909.88 798.22 1917.78 770.59 1859.97 754.6 1867.74 741.34 1839.02"/>
    <polygon id="plot7043" class="cls-7" points="719.82 1797.38 774.1 1776.61 789.26 1820.97 741.34 1839.02 719.82 1797.38"/>
    <polygon id="plot7032" class="cls-7" points="702.8 1760.44 759.52 1739.33 774.1 1776.61 719.82 1797.38 702.8 1760.44"/>
    <polygon id="plot7021" class="cls-7" points="686.87 1725.32 747.12 1702.12 759.52 1739.33 702.8 1760.44 686.87 1725.32"/>
    <polygon id="plot7010" class="cls-7" points="670.66 1691.01 734.36 1665.5 747.12 1702.12 686.87 1725.32 670.66 1691.01"/>
    <polygon id="plot6999" class="cls-7" points="653.91 1657.38 719.15 1634.18 734.36 1665.5 670.66 1691.01 653.91 1657.38"/>
    <polygon id="plot6988" class="cls-7" points="639.79 1628.79 706.92 1602.73 719.15 1634.18 653.91 1657.38 639.79 1628.79"/>
    <polygon id="plot6977" class="cls-7" points="620.13 1586.8 668.74 1568.73 675.65 1553.28 688.06 1559.27 706.92 1602.73 639.79 1628.79 620.13 1586.8"/>
    <path id="plot6964" class="cls-7" d="M558.72,1500.19s-24.81,53.83,12.26,98.99c25.75-13.06,43.88-22.84,43.88-22.84l5.27,10.46,48.61-18.06,6.92-15.46-116.93-53.09Z"/>
    <polygon id="plot6853" class="cls-7" points="685.35 1517.21 659.61 1468.47 589.84 1443.37 574.29 1450.08 577.56 1466.91 685.35 1517.21"/>
    <polygon id="plot6959" class="cls-7" points="705.28 1524.72 737.84 1458.98 679.47 1435.87 668.84 1457.79 705.28 1524.72"/>
    <polygon id="plot6870" class="cls-7" points="763.04 1396.53 737.84 1458.98 679.47 1435.87 685.35 1419.22 705.69 1427.75 717.29 1400.6 711.51 1398.23 721.26 1379.28 763.04 1396.53"/>
    <polygon id="plot6868" class="cls-7" points="698.69 1247.02 736.88 1265.11 727.99 1287.63 734.14 1291.02 723.72 1311.73 664.66 1287.63 698.69 1247.02"/>
    <polygon id="plot6867" class="cls-7" points="735.51 1208.58 783.63 1230.53 768.42 1268.15 742.03 1259.6 736.88 1265.11 698.69 1247.02 735.51 1208.58"/>
    <polygon id="plot6958" class="cls-7" points="735.51 1208.58 762.35 1179.25 846.79 1214.79 830.04 1250.35 735.51 1208.58"/>
    <polygon id="plot6863" class="cls-7" points="870.67 1164.13 846.79 1214.79 803.39 1196.52 828.61 1145.24 870.67 1164.13"/>
    <polygon id="plot6862" class="cls-7" points="762.35 1179.25 770.63 1169.52 780.7 1127.33 828.61 1145.24 803.39 1196.52 762.35 1179.25"/>
    <polygon id="plot6995" class="cls-7" points="832.75 1582.74 865.86 1507.22 835.48 1494.6 803.3 1565.66 832.75 1582.74"/>
    <polygon id="plot6994" class="cls-7" points="863.18 1599.02 896.89 1522.19 865.86 1507.22 832.75 1582.74 863.18 1599.02"/>
    <polygon id="plot6993" class="cls-7" points="902.66 1617.25 936.28 1537.24 896.89 1522.19 863.18 1599.02 902.66 1617.25"/>
    <polygon id="plot6991" class="cls-7" points="966.6 1550.85 1001.63 1565.66 969.43 1640.15 936.28 1630.05 966.6 1550.85"/>
    <polygon id="plot6990" class="cls-7" points="1004.53 1651 969.43 1640.15 1001.63 1565.66 1033.8 1579.2 1004.53 1651"/>
    <polygon id="plot6989" class="cls-7" points="1042.15 1664.01 1004.53 1651 1033.8 1579.2 1071.43 1595.5 1042.15 1664.01"/>
    <polygon id="plot6976" class="cls-7" points="1118.82 1697.6 1075.96 1679 1107.58 1608.33 1147.8 1624.29 1118.82 1697.6"/>
    <polygon id="plot6985" class="cls-7" points="872.43 1510.39 898.06 1452.11 861.38 1436.42 835.48 1494.6 872.43 1510.39"/>
    <polygon id="plot6984" class="cls-7" points="911.54 1527.79 936.28 1469.46 898.06 1452.11 872.43 1510.39 911.54 1527.79"/>
    <polygon id="plot6982" class="cls-7" points="990.33 1560.88 1015.48 1503.82 978.06 1487.21 952.01 1544.3 990.33 1560.88"/>
    <polygon id="plot6981" class="cls-7" points="1026.54 1576.14 1051.06 1519.53 1015.48 1503.82 990.33 1560.88 1026.54 1576.14"/>
    <polygon id="plot6980" class="cls-7" points="1067.25 1593.69 1092.77 1536.85 1051.06 1519.53 1026.54 1576.14 1067.25 1593.69"/>
    <polygon id="plot6978" class="cls-7" points="1170.4 1570.47 1147.8 1624.29 1107.58 1608.33 1130.96 1553.9 1170.4 1570.47"/>
    <polygon id="plot7017" class="cls-7" points="911.54 1438.44 957.25 1337.45 937.88 1301.88 933.43 1301.37 878.48 1423.59 911.54 1438.44"/>
    <polygon id="plot7014" class="cls-7" points="949.84 1454.06 981.63 1379.48 957.25 1337.45 911.54 1438.44 949.84 1454.06"/>
    <polygon id="plot7013" class="cls-7" points="986.9 1471.15 1022.63 1393.71 994.75 1400.8 981.63 1379.48 949.84 1454.06 986.9 1471.15"/>
    <polygon id="plot7012" class="cls-7" points="1024.95 1486.12 1062.01 1411.8 1026.73 1388.23 986.9 1471.15 1024.95 1486.12"/>
    <polygon id="plot7011" class="cls-7" points="1100.53 1436.34 1062.01 1411.8 1024.95 1486.12 1058.96 1501.6 1076.87 1464.34 1100.53 1436.34"/>
    <polygon id="plot6957" class="cls-7" points="1127.16 1403.19 1100.53 1436.34 1026.73 1388.23 1045.31 1350.97 1127.16 1403.19"/>
    <polygon id="plot7009" class="cls-7" points="1151.85 1373.73 1089.2 1328.98 1048.29 1345.34 1045.31 1350.97 1127.16 1403.19 1151.85 1373.73"/>
    <polygon id="plot7008" class="cls-7" points="1178.58 1341.17 1138.8 1308.48 1089.2 1328.98 1151.85 1373.73 1178.58 1341.17"/>
    <polygon id="plot7007" class="cls-7" points="1219.98 1292.9 1162.51 1266.26 1167.33 1296.17 1138.8 1308.48 1178.58 1341.17 1219.98 1292.9"/>
    <polygon id="plot6889" class="cls-7" points="1207.75 1226.79 1228.19 1281.18 1219.98 1292.9 1162.51 1266.26 1157.98 1236.53 1207.75 1226.79"/>
    <polygon id="plot6890" class="cls-7" points="1150.92 1203.23 1164.15 1175.78 1189 1175.78 1207.75 1226.79 1157.98 1236.53 1150.92 1203.23"/>
    <polygon id="plot7020" class="cls-7" points="839.77 1268.15 858.92 1233.9 943.24 1269.1 941.58 1305.83 937.88 1301.88 933.43 1301.37 931.01 1306.74 839.77 1268.15"/>
    <polygon id="plot7023" class="cls-7" points="873.99 1204.56 955.13 1238.36 974.5 1207.63 889.83 1171.76 873.99 1204.56"/>
    <polygon id="plot7022" class="cls-7" points="858.92 1233.9 873.99 1204.56 955.13 1238.36 944.47 1256.95 943.24 1269.1 858.92 1233.9"/>
    <polygon id="plot6997" class="cls-7" points="1138.99 1704.46 1163.18 1641.98 1222.74 1665 1197.36 1727.94 1138.99 1704.46"/>
    <polygon id="plot6998" class="cls-7" points="1234.26 1638.64 1222.74 1665 1163.18 1641.98 1193.09 1562.62 1214.86 1556.61 1214.15 1610.8 1234.26 1638.64"/>
    <polygon id="plot6960" class="cls-7" points="1255.92 1754.34 1197.36 1727.94 1234.26 1638.64 1266.87 1673.29 1251.71 1700.57 1255.92 1754.34"/>
    <polygon id="plot7002" class="cls-7" points="1214.86 1556.61 1217.68 1499.06 1184.05 1486.12 1157.98 1544.3 1193.09 1562.62 1214.86 1556.61"/>
    <polygon id="plot7001" class="cls-7" points="1115.83 1529 1141.88 1469.69 1184.05 1486.12 1157.98 1544.3 1115.83 1529"/>
    <polygon id="plot7003" class="cls-7" points="1217.68 1499.06 1219.86 1463.92 1145.9 1411.8 1115.83 1450.78 1141.88 1469.69 1217.68 1499.06"/>
    <polygon id="plot7004" class="cls-7" points="1169.65 1384.1 1224.05 1423.99 1219.86 1463.92 1145.9 1411.8 1169.65 1384.1"/>
    <polygon id="plot7005" class="cls-7" points="1239.57 1382.38 1199.4 1350.97 1169.65 1384.1 1224.05 1423.99 1228.19 1424.01 1228.19 1411.8 1239.57 1382.38"/>
    <polygon id="plot7006" class="cls-7" points="1250.14 1290.7 1267.19 1319.41 1239.57 1382.38 1199.4 1350.97 1250.14 1290.7"/>
    <polygon id="plot6861" class="cls-7" points="880.34 1144.57 786.41 1104.14 786.41 1094.49 810.46 1076.66 896.4 1111.52 880.34 1144.57"/>
    <polygon id="plot6860" class="cls-7" points="912.81 1075.56 896.4 1111.52 810.46 1076.66 860.24 1053.14 912.81 1075.56"/>
    <polygon id="plot6857" class="cls-7" points="969.94 961.28 933.97 950.74 933.97 946.36 843.91 919.35 865.74 964.94 950.08 997.83 969.94 961.28"/>
    <polygon id="plot6856" class="cls-7" points="994.76 896.38 969.94 961.28 933.97 950.74 935.27 946.4 952.09 884.89 994.76 896.38"/>
    <polygon id="plot6855" class="cls-7" points="1009.22 855.08 970.4 824.33 952.09 884.89 994.76 896.38 1009.22 855.08"/>
    <polygon id="plot7029" class="cls-7" points="899.58 1152.23 917.91 1119.91 984.69 1148.18 965.55 1180.02 899.58 1152.23"/>
    <polygon id="plot7028" class="cls-7" points="1005.96 1110.62 984.69 1148.18 917.91 1119.91 936.67 1082.33 1005.96 1110.62"/>
    <polygon id="plot7027" class="cls-7" points="1022.06 1073.29 1005.96 1110.62 936.67 1082.33 955.97 1046.12 1022.06 1073.29"/>
    <polygon id="plot7026" class="cls-7" points="1039.86 1034.9 1022.06 1073.29 955.97 1046.12 973.48 1007.95 1039.86 1034.9"/>
    <polygon id="plot7025" class="cls-7" points="1011.29 1148.14 1032.2 1102.68 1085.56 1127.29 1064.6 1166.15 1011.29 1148.14"/>
    <polygon id="plot7024" class="cls-7" points="1067.24 1027.15 1085.77 1037.11 1076.51 1072.58 1091.17 1118.65 1085.56 1127.29 1032.2 1102.68 1067.24 1027.15"/>
    <polygon id="plot7046" class="cls-7" points="1015.22 830.81 1033.48 769.76 987.21 755.97 974.5 798.54 1015.22 830.81"/>
    <polygon id="plot7048" class="cls-7" points="1018.24 650.41 1063.79 663.26 1049.27 715.32 1002.59 702.48 1018.24 650.41"/>
    <polygon id="plot7049" class="cls-7" points="1078.44 611.95 1063.79 663.26 1018.24 650.41 1033.19 598.98 1078.44 611.95"/>
    <polygon id="plot7050" class="cls-7" points="1048.34 547.26 1093.95 559.19 1078.44 611.95 1033.19 598.98 1048.34 547.26"/>
    <polygon id="plot7051" class="cls-7" points="1109.05 509.43 1093.95 559.19 1048.34 547.26 1062.49 495.29 1109.05 509.43"/>
    <polygon id="plot7052" class="cls-7" points="1127.25 451.07 1109.05 509.43 1062.49 495.29 1077.79 436.33 1127.25 451.07"/>
    <polygon id="plot7033" class="cls-7" points="1070.97 877.99 1033.84 846.48 1046.66 801.68 1088.98 814.51 1070.97 877.99"/>
    <polygon id="plot7034" class="cls-7" points="1062.1 747.94 1105.97 760.23 1088.98 814.51 1046.66 801.68 1062.1 747.94"/>
    <polygon id="plot7035" class="cls-7" points="1078.44 692.39 1122.39 703.76 1105.97 760.23 1062.1 747.94 1078.44 692.39"/>
    <polygon id="plot7036" class="cls-7" points="1101.53 616.22 1153.92 631.65 1116.86 670.8 1120.22 702.48 1078.44 692.39 1101.53 616.22"/>
    <polygon id="plot7037" class="cls-7" points="1114.1 576.32 1101.53 616.22 1153.92 631.65 1181.13 595.65 1114.1 576.32"/>
    <polygon id="plot7038" class="cls-7" points="1124.89 541.73 1198.13 562.88 1181.13 595.65 1114.1 576.32 1124.89 541.73"/>
    <polygon id="plot7039" class="cls-7" points="1135.47 502.99 1212.32 523.5 1198.13 562.88 1124.89 541.73 1135.47 502.99"/>
    <path id="plot7042" class="cls-7" d="M1170.5,384.32l-12.69,45.21,75.27,20.74,5.12-22.13,20.57-26.59-23.72-13.88s-34.59,13.34-64.55-3.35Z"/>
    <path id="plot7045" class="cls-7" d="M1158.85,238.02l15.3-49.29,110.45,54.5-22.47,35.07s-22.67-35.26-70.65-28.25c-19.43-8.03-32.63-12.04-32.63-12.04Z"/>
    <polygon id="plot7044" class="cls-7" points="1306.51 210.68 1184.54 149.39 1174.15 188.73 1284.6 243.24 1306.51 210.68"/>
  </g>
  <g id="INVESTOR">
    <polygon id="plot6912" class="cls-6" points="1022 2248.14 1033.37 2185.49 1074.84 2193.74 1062.84 2256.21 1022 2248.14"/>
    <polygon id="plot6935" class="cls-6" points="794.32 2475.07 856.12 2456.63 862.31 2494.96 800.25 2509.41 794.32 2475.07"/>
    <polygon id="plot6936" class="cls-6" points="786.69 2434.82 849.19 2418.31 856.12 2456.63 794.32 2475.07 786.69 2434.82"/>
    <polygon id="plot6945" class="cls-6" points="763.2 2176.24 816.08 2151.45 828.57 2187.29 770.62 2216.08 763.2 2176.24"/>
    <polygon id="plot6940" class="cls-6" points="869.55 2245.2 878.49 2199.83 828.57 2187.29 810.5 2196.82 827.17 2235.59 869.55 2245.2"/>
    <polygon id="plot6893" class="cls-6" points="1034.45 2161.33 1046.48 2102.34 1091.85 2111.74 1079.31 2169.79 1034.45 2161.33"/>
    <polygon id="plot6904" class="cls-6" points="1059.19 2041.6 1046.48 2102.34 1091.85 2111.74 1103.79 2050.85 1059.19 2041.6"/>
    <polygon id="plot6894" class="cls-6" points="997.3 2153.5 1009.01 2095.31 1046.48 2102.34 1034.45 2161.33 997.3 2153.5"/>
    <polygon id="plot6903" class="cls-6" points="1021.89 2033.87 1009.01 2095.31 1046.48 2102.34 1059.19 2041.6 1021.89 2033.87"/>
    <path id="plot6908" class="cls-6" d="M870.4,2127l-13.75-.58-45.14-94.49,7.49-6.42s22.49,17.53,45.06,16.86c4.19,11.38,15.67,42.03,15.67,42.03l-3.57.06-5.75,42.54Z"/>
    <polygon id="plot6879" class="cls-6" points="1138.66 2030.69 1149.47 1971.23 1109.4 1963.52 1097.68 2022.81 1138.66 2030.69"/>
    <polygon id="plot6881" class="cls-6" points="1187.44 2040.04 1198.43 1980.65 1149.47 1971.23 1138.66 2030.69 1187.44 2040.04"/>
    <polygon id="plot6965" class="cls-6" points="943.83 1843.23 911.99 1836.61 924.5 1754.78 958.98 1759.45 943.83 1843.23"/>
    <polygon id="plot6969" class="cls-6" points="911.99 1836.61 875.6 1829.57 889.66 1747.64 924.5 1754.78 911.99 1836.61"/>
    <polygon id="plot6970" class="cls-6" points="875.6 1829.57 837.11 1822.29 853.71 1742.29 889.66 1747.64 875.6 1829.57"/>
    <polygon id="plot6920" class="cls-6" points="858.34 1649.79 823.68 1631.99 787.13 1710.94 795.62 1734.06 826.23 1739.33 858.34 1649.79"/>
    <polygon id="plot6931" class="cls-6" points="727.68 1581.59 823.68 1631.99 787.13 1710.94 727.68 1581.59"/>
    <polygon id="plot6873" class="cls-6" points="602.37 1437.37 669.54 1456.36 685.35 1419.22 676.28 1414.45 608.02 1402.67 602.37 1437.37"/>
    <polygon id="plot6872" class="cls-6" points="608.02 1402.67 615.47 1361.65 687.76 1387.73 676.28 1414.45 608.02 1402.67"/>
    <polygon id="plot6871" class="cls-6" points="635.2 1323.23 707.94 1351.71 692.29 1388.05 687.76 1387.73 615.47 1361.65 615.47 1346.87 635.2 1323.23"/>
    <polygon id="plot6869" class="cls-6" points="664.66 1287.63 723.72 1311.73 707.94 1351.71 635.2 1323.23 664.66 1287.63"/>
    <polygon id="plot6864" class="cls-6" points="759.31 1298.61 798.32 1313.77 830.04 1250.35 783.63 1230.53 759.31 1298.61"/>
    <polygon id="plot6866" class="cls-6" points="769.81 1376.28 798.32 1313.77 759.31 1298.61 751.62 1299.69 730.5 1358.41 769.81 1376.28"/>
    <polygon id="plot6975" class="cls-6" points="761.87 1463.47 731.45 1529.74 763.88 1545.6 797.28 1478.72 761.87 1463.47"/>
    <polygon id="plot6996" class="cls-6" points="803.3 1565.66 763.88 1545.6 797.28 1478.72 835.48 1494.6 803.3 1565.66"/>
    <polygon id="plot6992" class="cls-6" points="936.28 1630.05 966.6 1550.85 936.28 1537.24 902.66 1617.25 936.28 1630.05"/>
    <polygon id="plot6987" class="cls-6" points="1075.96 1679 1042.15 1664.01 1071.43 1595.5 1107.58 1608.33 1075.96 1679"/>
    <polygon id="plot6961" class="cls-6" points="761.87 1463.47 787.35 1403.95 825.73 1420.9 797.28 1478.72 761.87 1463.47"/>
    <polygon id="plot6986" class="cls-6" points="835.48 1494.6 797.28 1478.72 825.73 1420.9 861.38 1436.42 835.48 1494.6"/>
    <polygon id="plot6983" class="cls-6" points="952.01 1544.3 978.06 1487.21 936.28 1469.46 911.54 1527.79 952.01 1544.3"/>
    <polygon id="plot6979" class="cls-6" points="1107.58 1608.33 1130.96 1553.9 1092.77 1536.85 1067.25 1593.69 1107.58 1608.33"/>
    <polygon id="plot7000" class="cls-6" points="1082.61 1512.48 1095.57 1476.01 1115.83 1450.78 1141.88 1469.69 1115.83 1529 1082.61 1512.48"/>
    <polygon id="plot6859" class="cls-6" points="934.6 1031.75 912.81 1075.56 860.24 1053.14 874.66 1045.66 881.23 1026.84 876.54 1007.29 934.6 1031.75"/>
    <polygon id="plot6858" class="cls-6" points="950.08 997.83 934.6 1031.75 876.54 1007.29 865.74 964.94 950.08 997.83"/>
    <polygon id="plot7030" class="cls-6" points="1035.87 1009.38 1047.25 958.59 1001.92 942.48 985.31 986.68 1035.87 1009.38"/>
    <polygon id="plot7031" class="cls-6" points="1026.83 869.74 1061.99 898.9 1047.25 958.59 1001.92 942.48 1026.83 869.74"/>
    <polygon id="plot7047" class="cls-6" points="1049.27 715.32 1033.48 769.76 987.21 755.97 1002.59 702.48 1049.27 715.32"/>
    <polygon id="plot7053" class="cls-6" points="1142.06 408.66 1127.25 451.07 1077.79 436.33 1103.92 341.65 1142.06 408.66"/>
    <polygon id="plot7040" class="cls-6" points="1146.63 466.71 1221.94 488.21 1212.32 523.5 1135.47 502.99 1146.63 466.71"/>
    <polygon id="plot7041" class="cls-6" points="1157.82 429.53 1233.09 450.27 1221.94 488.21 1146.63 466.71 1157.82 429.53"/>
    <polygon id="plot7015" class="cls-6" points="791.15 1384.8 816.67 1323.23 860.54 1345.34 835.36 1403.19 791.15 1384.8"/>
    <polygon id="plot7016" class="cls-6" points="878.48 1423.59 835.36 1403.19 860.54 1345.34 904.36 1366.37 878.48 1423.59"/>
    <polygon id="plot7019" class="cls-6" points="816.67 1323.23 839.77 1268.15 884.68 1287.2 860.54 1345.34 816.67 1323.23"/>
    <polygon id="plot7018" class="cls-6" points="931.01 1306.74 904.36 1366.37 860.54 1345.34 884.68 1287.2 931.01 1306.74"/>
  </g>
</svg>