<?xml version="1.0"?>
<svg xmlns="http://www.w3.org/2000/svg" version="1.2" baseProfile="tiny" width="800" height="1357" viewBox="0 0 800 1357" stroke-linecap="round" stroke-linejoin="round">
<g id="SUR_gotovo">
<path d="M 676.18 38.97 661.99 94.51 629.66 89.07 634.54 69.8 643.31 35.25 676.18 38.97 Z" id="plot1491"/>
<path d="M 708.88 42.65 761.31 48.57 754.1 77.01 701.62 70.55 708.88 42.65 Z" id="plot1493"/>
<path d="M 782.17 114.75 757.81 110.64 773.1 49.9 799 52.82 795.4 62.61 782.17 114.75 Z" id="plot1494"/>
<path d="M 701.62 70.55 754.1 77.01 746.07 108.66 693.9 99.89 701.62 70.55 Z" id="plot1495"/>
<path d="M 432.24 907.38 457.84 910.37 447.96 949.3 422.42 946.46 432.24 907.38 Z" id="plot1497"/>
<path d="M 539.66 1240.43 560.42 1229.37 577.01 1260.53 556.23 1271.59 539.66 1240.43 Z" id="plot1498"/>
<path d="M 560.42 1229.37 581.2 1218.31 597.78 1249.48 577.01 1260.53 560.42 1229.37 Z" id="plot1499"/>
<path d="M 581.2 1218.31 598.05 1209.35 601.98 1207.26 618.54 1238.43 597.78 1249.48 581.2 1218.31 Z" id="plot1500"/>
<path d="M 512.69 1214.79 543.84 1198.2 554.91 1218.97 523.75 1235.56 512.69 1214.79 Z" id="plot1501"/>
<path d="M 501.63 1194.01 532.78 1177.42 543.84 1198.2 512.69 1214.79 501.63 1194.01 Z" id="plot1502"/>
<path d="M 490.57 1173.24 521.72 1156.65 532.78 1177.42 501.63 1194.01 490.57 1173.24 Z" id="plot1503"/>
<path d="M 479.51 1152.48 510.65 1135.88 521.72 1156.65 490.57 1173.24 479.51 1152.48 Z" id="plot1504"/>
<path d="M 468.43 1131.71 499.59 1115.12 510.65 1135.88 479.51 1152.48 468.43 1131.71 Z" id="plot1505"/>
<path d="M 499.36 915.3 501.49 940.75 461.92 942.12 469.62 911.77 499.36 915.3 Z" id="plot1508"/>
<path d="M 459.41 1189.83 490.57 1173.24 501.63 1194.01 470.47 1210.61 459.41 1189.83 Z" id="plot1509"/>
<path d="M 470.47 1210.61 501.63 1194.01 512.69 1214.79 481.53 1231.38 470.47 1210.61 Z" id="plot1510"/>
<path d="M 481.53 1231.38 512.69 1214.79 523.75 1235.56 492.59 1252.15 481.53 1231.38 Z" id="plot1511"/>
<path d="M 551.16 1186.89 564.55 1178.88 583.3 1177.17 585.63 1202.64 565.29 1213.44 551.16 1186.89 Z" id="plot1512"/>
<path d="M 536.57 1079.32 538.68 1102.34 522.98 1104.49 510.13 1109.87 498.92 1088.81 512.65 1081.5 536.57 1079.32 Z" id="plot1514"/>
<path d="M 510.13 1109.87 522.98 1104.49 538.68 1102.34 540.59 1123.26 541.92 1137.89 527.98 1143.38 510.13 1109.87 Z" id="plot1515"/>
<path d="M 527.98 1143.38 541.92 1137.89 545.95 1145.26 551.81 1144.72 564.55 1178.88 551.16 1186.89 527.98 1143.38 Z" id="plot1517"/>
<path d="M 551.81 1144.72 580.11 1142.13 583.3 1177.17 564.55 1178.88 551.81 1144.72 Z" id="plot1516"/>
<path d="M 457.37 1110.94 488.53 1094.34 499.59 1115.12 468.43 1131.71 457.37 1110.94 Z" id="plot1506"/>
<path d="M 536.57 1079.32 555.32 1077.61 559.33 1121.54 540.59 1123.26 538.68 1102.34 536.57 1079.32 Z" id="plot1518"/>
<path d="M 540.59 1123.26 559.33 1121.54 578.07 1119.84 580.11 1142.13 551.81 1144.72 545.95 1145.26 541.92 1137.89 540.59 1123.26 Z" id="plot1520"/>
<path d="M 578.59 996.12 603.19 993.93 606.24 1027.39 581.65 1029.61 578.59 996.12 Z" id="plot1521"/>
<path d="M 581.65 1029.61 606.24 1027.39 609.3 1060.85 584.71 1063.1 581.65 1029.61 Z" id="plot1522"/>
<path d="M 531.42 997.08 566.58 993.86 568.71 1017.3 533.56 1020.5 531.42 997.08 Z" id="plot1523"/>
<path d="M 535.7 1043.94 570.85 1040.73 572.99 1064.17 537.83 1067.38 535.7 1043.94 Z" id="plot1524"/>
<path d="M 509.22 1034.13 534.62 1032.12 535.7 1043.94 537.83 1067.38 512.18 1069.72 509.22 1034.13 Z" id="plot1525"/>
<path d="M 555.32 1077.61 574.06 1075.89 578.07 1119.84 559.33 1121.54 555.32 1077.61 Z" id="plot1513"/>
<path d="M 486.77 994.53 507.45 993.5 508.24 1002.14 506.6 1002.27 509.22 1034.13 488.47 1035.63 486.77 994.53 Z" id="plot1526"/>
<path d="M 676.18 38.97 708.88 42.65 701.62 70.55 693.9 99.89 661.99 94.51 676.18 38.97 Z" id="plot1492"/>
<path d="M 454.96 1006.29 479.42 994.9 486.77 994.53 488.47 1035.63 471.36 1037.08 454.96 1006.29 Z" id="plot1527"/>
<path d="M 533.56 1020.5 568.71 1017.3 570.85 1040.73 535.7 1043.94 534.62 1032.12 533.56 1020.5 Z" id="plot1529"/>
<path d="M 461.92 942.12 501.49 940.75 503.47 962.8 477.4 963.91 456.16 964.8 461.92 942.12 Z" id="plot1530"/>
<path d="M 528.22 961.92 563.37 958.71 565.51 982.14 530.35 985.36 528.22 961.92 Z" id="plot1531"/>
<path d="M 600.14 960.44 575.53 962.61 572 923.95 597.08 926.92 600.14 960.44 Z" id="plot1533"/>
<path d="M 501.49 940.75 526.08 938.48 528.22 961.92 530.35 985.36 524.49 985.89 524.22 982.96 506.64 984.56 505.45 984.7 503.47 962.8 501.49 940.75 Z" id="plot1532"/>
<path d="M 575.53 962.61 600.14 960.44 603.19 993.93 578.59 996.12 575.53 962.61 Z" id="plot1534"/>
<path d="M 440.78 1079.77 471.94 1063.18 483 1083.95 451.84 1100.55 440.78 1079.77 Z" id="plot1535"/>
<path d="M 429.72 1059.01 460.88 1042.41 471.94 1063.18 440.78 1079.77 429.72 1059.01 Z" id="plot1536"/>
<path d="M 387.5 1054.84 418.66 1038.25 429.72 1059.01 398.56 1075.61 387.5 1054.84 Z" id="plot1538"/>
<path d="M 448.35 1169.07 479.51 1152.48 490.57 1173.24 459.41 1189.83 448.35 1169.07 Z" id="plot1507"/>
<path d="M 398.56 1075.61 429.72 1059.01 440.78 1079.77 409.62 1096.37 398.56 1075.61 Z" id="plot1539"/>
<path d="M 499.36 915.3 560.06 922.52 561.22 935.28 526.08 938.48 501.49 940.75 499.36 915.3 Z" id="plot1519"/>
<path d="M 365.37 1013.29 396.53 996.69 407.6 1017.47 376.43 1034.06 365.37 1013.29 Z" id="plot1540"/>
<path d="M 613.43 1106.05 588.83 1108.29 585.78 1074.82 610.37 1072.57 613.43 1106.05 Z" id="plot1541"/>
<path d="M 354.31 992.51 401.28 967.52 411.95 988.16 396.53 996.69 365.37 1013.29 354.31 992.51 Z" id="plot1542"/>
<path d="M 377.91 941.15 398.35 943.57 406.04 944.49 401.28 967.52 354.31 992.51 343.25 971.74 374.41 955.15 377.91 941.15 Z" id="plot1544"/>
<path d="M 411.95 988.16 432 977.06 440.66 978.06 436.12 995.95 438.76 1000.87 407.6 1017.47 396.53 996.69 411.95 988.16 Z" id="plot1543"/>
<path d="M 406.04 944.49 422.42 946.46 447.96 949.3 440.66 978.06 432 977.06 411.95 988.16 401.28 967.52 406.04 944.49 Z" id="plot1545"/>
<path d="M 456.16 964.8 477.4 963.91 479.42 994.9 454.96 1006.29 448.64 994.42 456.16 964.8 Z" id="plot1546"/>
<path d="M 526.08 938.48 561.22 935.28 563.37 958.71 528.22 961.92 526.08 938.48 Z" id="plot1548"/>
<path d="M 376.43 1034.06 407.6 1017.47 418.66 1038.25 387.5 1054.84 376.43 1034.06 Z" id="plot1549"/>
<path d="M 407.6 1017.47 438.76 1000.87 449.82 1021.64 418.66 1038.25 407.6 1017.47 Z" id="plot1550"/>
<path d="M 409.62 1096.37 440.78 1079.77 451.84 1100.55 420.69 1117.15 409.62 1096.37 Z" id="plot1551"/>
<path d="M 508.24 1002.14 525.82 1000.54 525.55 997.62 531.42 997.08 533.56 1020.5 534.62 1032.12 509.22 1034.13 506.6 1002.27 508.24 1002.14 Z" id="plot1528"/>
<path d="M 588.83 1108.29 613.43 1106.05 616.49 1139.54 591.89 1141.77 588.83 1108.29 Z" id="plot1552"/>
<path d="M 457.37 1110.94 468.43 1131.71 437.28 1148.3 426.22 1127.53 457.37 1110.94 Z" id="plot1553"/>
<path d="M 437.28 1148.3 468.43 1131.71 479.51 1152.48 448.35 1169.07 437.28 1148.3 Z" id="plot1554"/>
<path d="M 518.88 1251.48 535.47 1282.64 514.66 1293.71 498.11 1262.54 518.88 1251.48 Z" id="plot1555"/>
<path d="M 471.36 1037.08 488.47 1035.63 509.22 1034.13 512.18 1069.72 509.22 1069.99 493.39 1078.42 471.36 1037.08 Z" id="plot1556"/>
<path d="M 594.93 1175.2 619.55 1173.04 625.2 1234.89 618.54 1238.43 601.98 1207.26 598.05 1209.35 594.93 1175.2 Z" id="plot1559"/>
<path d="M 591.89 1141.77 616.49 1139.54 619.55 1173.04 594.93 1175.2 591.89 1141.77 Z" id="plot1558"/>
<path d="M 518.88 1251.48 539.66 1240.43 556.23 1271.59 535.47 1282.64 518.88 1251.48 Z" id="plot1560"/>
<path d="M 164.93 820.93 174.85 781.82 198.9 784.7 188.96 823.8 164.93 820.93 Z" id="plot1561"/>
<path d="M 179.09 862.9 188.96 823.8 212.98 826.69 203.21 865.79 179.09 862.9 Z" id="plot1564"/>
<path d="M 349.43 843.25 387.52 852.73 378.89 886.74 339.54 882.02 349.43 843.25 Z" id="plot1562"/>
<path d="M 227.26 868.65 237.09 829.57 261.17 832.45 251.32 871.53 227.26 868.65 Z" id="plot1566"/>
<path d="M 203.21 865.79 212.98 826.69 237.09 829.57 227.26 868.65 203.21 865.79 Z" id="plot1565"/>
<path d="M 275.41 874.39 285.23 835.33 309.32 838.22 299.47 877.27 275.41 874.39 Z" id="plot1568"/>
<path d="M 251.32 871.53 261.17 832.45 285.23 835.33 275.41 874.39 251.32 871.53 Z" id="plot1567"/>
<path d="M 299.47 877.27 309.32 838.22 309.88 835.97 335.97 838.99 325.4 880.38 299.47 877.27 Z" id="plot1569"/>
<path d="M 400.81 848.14 423.16 853.8 412.65 890.77 390.7 888.15 400.81 848.14 Z" id="plot1571"/>
<path d="M 164.93 820.93 188.96 823.8 179.09 862.9 155.02 860.03 164.93 820.93 Z" id="plot1563"/>
<path d="M 141.6 913.01 151.5 873.91 175.53 876.78 165.66 915.88 141.6 913.01 Z" id="plot1574"/>
<path d="M 406.59 825.31 440.81 833.98 435.71 854.02 435.03 856.8 423.16 853.8 400.81 848.14 406.59 825.31 Z" id="plot1570"/>
<path d="M 423.16 853.8 435.03 856.8 445.25 859.39 436.79 893.64 412.65 890.77 423.16 853.8 Z" id="plot1573"/>
<path d="M 189.78 918.76 199.56 879.66 223.67 882.54 213.85 921.62 189.78 918.76 Z" id="plot1576"/>
<path d="M 213.85 921.62 223.67 882.54 247.74 885.42 237.92 924.5 213.85 921.62 Z" id="plot1577"/>
<path d="M 237.92 924.5 247.74 885.42 271.8 888.31 261.98 927.38 237.92 924.5 Z" id="plot1578"/>
<path d="M 261.98 927.38 271.8 888.31 295.87 891.19 286.03 930.3 261.98 927.38 Z" id="plot1579"/>
<path d="M 418.66 1038.25 449.82 1021.64 460.88 1042.41 429.72 1059.01 418.66 1038.25 Z" id="plot1537"/>
<path d="M 326 934.94 336 895.9 360.03 898.73 350.16 937.83 326 934.94 Z" id="plot1581"/>
<path d="M 295.87 891.19 321.86 894.18 311.23 935.75 285.43 932.67 286.03 930.3 295.87 891.19 Z" id="plot1580"/>
<path d="M 350.16 937.83 360.03 898.73 384.06 901.62 374.28 940.72 350.16 937.83 Z" id="plot1582"/>
<path d="M 398.35 943.57 408.17 904.5 432.24 907.38 422.42 946.46 406.04 944.49 398.35 943.57 Z" id="plot1585"/>
<path d="M 212.98 826.69 222.95 787.57 246.97 790.46 237.09 829.57 212.98 826.69 Z" id="plot1583"/>
<path d="M 141.6 913.01 165.66 915.88 155.79 954.98 131.73 952.1 141.6 913.01 Z" id="plot1586"/>
<path d="M 204.01 960.71 213.85 921.62 237.92 924.5 228.08 963.57 204.01 960.71 Z" id="plot1589"/>
<path d="M 179.91 957.86 189.78 918.76 213.85 921.62 204.01 960.71 179.91 957.86 Z" id="plot1588"/>
<path d="M 228.08 963.57 237.92 924.5 261.98 927.38 252.15 966.45 228.08 963.57 Z" id="plot1590"/>
<path d="M 252.15 966.45 261.98 927.38 286.03 930.3 285.43 932.67 274.37 975.85 276.88 980.43 257.4 990.79 249.77 976.46 252.15 966.45 Z" id="plot1591"/>
<path d="M 257.4 990.79 276.88 980.43 288.56 974.2 299.62 994.97 268.46 1011.56 257.4 990.79 Z" id="plot1592"/>
<path d="M 237.09 829.57 246.97 790.46 271.03 793.34 261.17 832.45 237.09 829.57 Z" id="plot1594"/>
<path d="M 285.43 932.67 311.23 935.75 310.21 939.76 319.72 957.61 288.56 974.2 276.88 980.43 274.37 975.85 285.43 932.67 Z" id="plot1593"/>
<path d="M 288.56 974.2 319.72 957.61 330.78 978.38 299.62 994.97 288.56 974.2 Z" id="plot1595"/>
<path d="M 477.4 963.91 503.47 962.8 505.45 984.7 506.64 984.56 507.45 993.5 486.77 994.53 479.42 994.9 477.4 963.91 Z" id="plot1547"/>
<path d="M 326 934.94 350.16 937.83 374.28 940.72 377.91 941.15 374.41 955.15 343.25 971.74 325.24 937.95 326 934.94 Z" id="plot1596"/>
<path d="M 122.59 987.96 156.81 996.63 155.38 1002.28 151.03 1019.44 116.82 1010.77 122.59 987.96 Z" id="plot1598"/>
<path d="M 116.82 1010.77 151.03 1019.44 145.24 1042.25 111.03 1033.58 116.82 1010.77 Z" id="plot1599"/>
<path d="M 111.03 1033.58 145.24 1042.25 161.92 1057.6 144.55 1072.88 108.93 1041.93 111.03 1033.58 Z" id="plot1600"/>
<path d="M 151.03 1019.44 155.38 1002.28 168.28 1004.9 176.57 1020.48 179.18 1019.1 188.19 1036.02 163.88 1055.99 161.92 1057.6 145.24 1042.25 151.03 1019.44 Z" id="plot1601"/>
<path d="M 188.96 823.8 198.9 784.7 222.95 787.57 212.98 826.69 188.96 823.8 Z" id="plot1572"/>
<path d="M 164.22 967.84 204.25 972.6 199.97 988.64 183.86 996.62 168.28 1004.9 155.38 1002.28 156.81 996.63 164.22 967.84 Z" id="plot1602"/>
<path d="M 192.15 1012.2 220.73 996.98 231.79 1017.75 200.62 1034.34 189.57 1013.57 192.15 1012.2 Z" id="plot1604"/>
<path d="M 261.17 832.45 271.03 793.34 295.1 796.22 285.23 835.33 261.17 832.45 Z" id="plot1605"/>
<path d="M 204.25 972.6 236.45 976.43 241.49 985.92 220.73 996.98 192.15 1012.2 183.86 996.62 199.97 988.64 204.25 972.6 Z" id="plot1603"/>
<path d="M 220.73 996.98 241.49 985.92 258.08 1017.08 237.32 1028.14 231.79 1017.75 220.73 996.98 Z" id="plot1606"/>
<path d="M 79.22 967.5 113.44 976.17 107.66 998.97 73.45 990.3 79.22 967.5 Z" id="plot1607"/>
<path d="M 1 1010.58 13.5 973.36 62.11 987.06 57.22 1006.37 1 1010.58 Z" id="plot1609"/>
<path d="M 1 1010.58 57.22 1006.37 55.91 1011.51 66.63 1020.82 43.49 1047.47 1 1010.58 Z" id="plot1610"/>
<path d="M 66.63 1020.82 84.4 1036.25 61.27 1062.91 43.49 1047.47 66.63 1020.82 Z" id="plot1611"/>
<path d="M 84.4 1036.25 102.18 1051.67 79.04 1078.34 61.27 1062.91 84.4 1036.25 Z" id="plot1612"/>
<path d="M 102.18 1051.67 119.95 1067.11 96.8 1093.76 79.04 1078.34 102.18 1051.67 Z" id="plot1613"/>
<path d="M 119.95 1067.11 137.71 1082.54 114.56 1109.19 96.8 1093.76 119.95 1067.11 Z" id="plot1614"/>
<path d="M 285.23 835.33 295.1 796.22 319.15 799.09 309.88 835.97 309.32 838.22 285.23 835.33 Z" id="plot1616"/>
<path d="M 165.66 915.88 175.53 876.78 199.56 879.66 189.78 918.76 165.66 915.88 Z" id="plot1575"/>
<path d="M 309.88 835.97 319.15 799.09 345.37 802.24 335.97 838.99 309.88 835.97 Z" id="plot1620"/>
<path d="M 535.83 459.11 570.05 467.76 564.27 490.58 530.05 481.91 535.83 459.11 Z" id="plot1623"/>
<path d="M 354.65 822.86 392.75 832.08 387.52 852.73 349.43 843.25 354.65 822.86 Z" id="plot1622"/>
<path d="M 564.11 539.09 596.35 547.26 587.3 579.74 555.85 571.79 564.11 539.09 Z" id="plot1625"/>
<path d="M 604.11 524.95 638.33 533.62 632.55 556.43 598.34 547.76 604.11 524.95 Z" id="plot1624"/>
<path d="M 596.35 547.26 598.34 547.76 632.55 556.43 625.06 586.06 608.37 585.07 587.3 579.74 596.35 547.26 Z" id="plot1626"/>
<path d="M 659.65 497.39 683.57 503.49 675.29 536.13 651.39 529.98 659.65 497.39 Z" id="plot1627"/>
<path d="M 374.28 940.72 384.06 901.62 408.17 904.5 398.35 943.57 377.91 941.15 374.28 940.72 Z" id="plot1584"/>
<path d="M 507.3 571.66 541.51 580.33 535.74 603.15 501.52 594.48 507.3 571.66 Z" id="plot1629"/>
<path d="M 587.13 591.9 581.36 614.71 547.14 606.04 552.92 583.23 587.13 591.9 Z" id="plot1630"/>
<path d="M 651.39 529.98 675.29 536.13 662.05 588.31 637.03 586.79 651.39 529.98 Z" id="plot1628"/>
<path d="M 587.13 591.9 605.18 596.5 622.1 597.66 615.57 623.39 581.36 614.71 587.13 591.9 Z" id="plot1631"/>
<path d="M 73.45 990.3 107.66 998.97 101.47 1023.37 81.06 1017.96 69.1 1007.38 73.45 990.3 Z" id="plot1608"/>
<path d="M 650.26 634.81 626.35 628.79 634.06 598.39 659.11 599.88 650.26 634.81 Z" id="plot1632"/>
<path d="M 530.05 481.91 564.27 490.58 558.49 513.38 524.28 504.71 530.05 481.91 Z" id="plot1634"/>
<path d="M 547.14 606.04 581.36 614.71 575.57 637.52 541.35 628.85 547.14 606.04 Z" id="plot1635"/>
<path d="M 581.36 614.71 615.57 623.39 609.78 646.19 575.57 637.52 581.36 614.71 Z" id="plot1636"/>
<path d="M 501.52 594.48 535.74 603.15 529.95 625.95 495.73 617.28 498.07 608.05 501.52 594.48 Z" id="plot1633"/>
<path d="M 495.73 617.28 529.95 625.95 524.17 648.77 489.95 640.09 495.73 617.28 Z" id="plot1638"/>
<path d="M 626.35 628.79 650.26 634.81 641.98 667.46 618.08 661.42 626.35 628.79 Z" id="plot1637"/>
<path d="M 618.08 661.42 641.98 667.46 633.69 700.13 609.81 694.03 618.08 661.42 Z" id="plot1641"/>
<path d="M 575.57 637.52 609.78 646.19 604.01 669 569.79 660.33 575.57 637.52 Z" id="plot1640"/>
<path d="M 569.79 660.33 604.01 669 598.22 691.82 564 683.15 569.79 660.33 Z" id="plot1642"/>
<path d="M 535.57 651.66 569.79 660.33 564 683.15 529.78 674.48 535.57 651.66 Z" id="plot1643"/>
<path d="M 484.17 662.91 518.38 671.58 512.6 694.4 478.39 685.71 484.17 662.91 Z" id="plot1646"/>
<path d="M 541.35 628.85 575.57 637.52 569.79 660.33 535.57 651.66 541.35 628.85 Z" id="plot1639"/>
<path d="M 529.78 674.48 564 683.15 558.22 705.96 524.01 697.28 529.78 674.48 Z" id="plot1647"/>
<path d="M 489.95 640.09 524.17 648.77 518.38 671.58 484.17 662.91 489.95 640.09 Z" id="plot1644"/>
<path d="M 524.28 504.71 558.49 513.38 552.7 536.2 518.49 527.54 524.28 504.71 Z" id="plot1645"/>
<path d="M 601.55 726.65 625.4 732.83 617.1 765.52 593.28 759.26 601.55 726.65 Z" id="plot1650"/>
<path d="M 609.81 694.03 633.69 700.13 625.4 732.83 601.55 726.65 609.81 694.03 Z" id="plot1649"/>
<path d="M 564 683.15 598.22 691.82 592.44 714.63 558.22 705.96 564 683.15 Z" id="plot1648"/>
<path d="M 558.22 705.96 592.44 714.63 586.66 737.44 552.45 728.77 558.22 705.96 Z" id="plot1651"/>
<path d="M 524.01 697.28 558.22 705.96 552.45 728.77 518.23 720.09 524.01 697.28 Z" id="plot1652"/>
<path d="M 478.39 685.71 512.6 694.4 506.83 717.2 472.61 708.53 478.39 685.71 Z" id="plot1653"/>
<path d="M 469.72 719.93 503.93 728.6 498.16 751.42 463.94 742.73 469.72 719.93 Z" id="plot1654"/>
<path d="M 463.94 742.73 498.16 751.42 492.38 774.22 458.16 765.55 458.48 764.27 463.94 742.73 Z" id="plot1655"/>
<path d="M 446.6 811.18 480.81 819.85 475.02 842.65 440.81 833.98 446.6 811.18 Z" id="plot1659"/>
<path d="M 518.49 527.54 552.7 536.2 544.41 568.91 510.19 560.26 518.49 527.54 Z" id="plot1656"/>
<path d="M 440.81 833.98 475.02 842.65 469.25 865.47 445.25 859.39 435.03 856.8 435.71 854.02 440.81 833.98 Z" id="plot1660"/>
<path d="M 549.55 740.17 543.77 762.98 509.56 754.3 515.33 731.5 549.55 740.17 Z" id="plot1662"/>
<path d="M 445.25 859.39 469.25 865.47 461.36 896.57 436.79 893.64 445.25 859.39 Z" id="plot1661"/>
<path d="M 549.55 740.17 583.77 748.84 577.99 771.65 543.77 762.98 549.55 740.17 Z" id="plot1663"/>
<path d="M 509.56 754.3 543.77 762.98 538 785.79 503.78 777.11 509.56 754.3 Z" id="plot1664"/>
<path d="M 543.77 762.98 577.99 771.65 572.21 794.46 538 785.79 543.77 762.98 Z" id="plot1665"/>
<path d="M 503.78 777.11 538 785.79 532.21 808.6 497.99 799.93 503.78 777.11 Z" id="plot1666"/>
<path d="M 538 785.79 572.21 794.46 566.42 817.27 532.21 808.6 538 785.79 Z" id="plot1668"/>
<path d="M 497.99 799.93 532.21 808.6 526.43 831.42 492.21 822.74 497.99 799.93 Z" id="plot1669"/>
<path d="M 532.21 808.6 566.42 817.27 560.65 840.09 526.43 831.42 532.21 808.6 Z" id="plot1670"/>
<path d="M 492.21 822.74 526.43 831.42 520.64 854.22 486.42 845.55 492.21 822.74 Z" id="plot1671"/>
<path d="M 526.43 831.42 560.65 840.09 554.86 862.9 520.64 854.22 526.43 831.42 Z" id="plot1672"/>
<path d="M 486.42 845.55 520.64 854.22 514.86 877.04 480.65 868.36 486.42 845.55 Z" id="plot1673"/>
<path d="M 480.65 868.36 514.86 877.04 508.62 902.19 473.13 897.96 480.65 868.36 Z" id="plot1675"/>
<path d="M 520.64 854.22 554.86 862.9 549.08 885.74 514.86 877.04 520.64 854.22 Z" id="plot1674"/>
<path d="M 514.86 877.04 549.08 885.74 546.39 906.67 508.62 902.19 514.86 877.04 Z" id="plot1676"/>
<path d="M 593.28 759.26 617.1 765.52 608.8 798.26 585 791.89 593.28 759.26 Z" id="plot1677"/>
<path d="M 615.68 479.33 649.9 488 644.11 510.82 609.89 502.14 615.68 479.33 Z" id="plot1678"/>
<path d="M 585 791.89 608.8 798.26 600.55 830.8 576.68 824.69 585 791.89 Z" id="plot1679"/>
<path d="M 576.68 824.69 600.55 830.8 592.2 863.68 568.45 857.2 576.68 824.69 Z" id="plot1680"/>
<path d="M 568.45 857.2 592.2 863.68 591.55 866.29 595.76 912.55 570.97 909.62 566.77 863.82 568.45 857.2 Z" id="plot1681"/>
<path d="M 609.89 502.14 644.11 510.82 638.33 533.62 604.11 524.95 609.89 502.14 Z" id="plot1684"/>
<path d="M 569.9 516.28 604.11 524.95 598.34 547.76 596.35 547.26 564.11 539.09 569.9 516.28 Z" id="plot1685"/>
<path d="M 575.67 493.47 609.89 502.14 604.11 524.95 569.9 516.28 575.67 493.47 Z" id="plot1683"/>
<path d="M 323.14 50.62 339.79 1 360.06 3.29 347.05 54.61 323.14 50.62 Z" id="plot1686"/>
<path d="M 155.79 954.98 165.66 915.88 189.78 918.76 179.91 957.86 155.79 954.98 Z" id="plot1587"/>
<path d="M 323.14 50.62 347.05 54.62 333.63 107.62 306.1 101.4 323.14 50.62 Z" id="plot1688"/>
<path d="M 265.43 288.32 286.44 293.75 277.15 330.35 255.58 324.92 265.43 288.32 Z" id="plot1690"/>
<path d="M 218.09 363.68 229.25 330.44 251.43 336 242.31 369.65 218.09 363.68 Z" id="plot1691"/>
<path d="M 218.09 363.68 242.31 369.65 265.7 375.49 260.9 394.43 211.91 382.08 218.09 363.68 Z" id="plot1693"/>
<path d="M 251.43 336 274.26 341.74 265.7 375.49 242.31 369.65 251.43 336 Z" id="plot1692"/>
<path d="M 199.95 417.74 251.65 430.93 246.62 450.74 193.42 437.21 199.95 417.74 Z" id="plot1696"/>
<path d="M 187.09 456.07 241.72 470.09 236.87 489.22 181.01 474.16 187.09 456.07 Z" id="plot1698"/>
<path d="M 193.42 437.21 246.62 450.74 241.72 470.09 187.09 456.07 193.42 437.21 Z" id="plot1697"/>
<path d="M 306.1 101.4 333.63 107.62 326.57 135.46 297.14 128.11 306.1 101.4 Z" id="plot1699"/>
<path d="M 181.01 474.16 236.87 489.22 232.22 507.53 197.32 498.16 174.97 492.18 181.01 474.16 Z" id="plot1700"/>
<path d="M 174.97 492.18 197.32 498.16 188.9 528.38 162.87 528.23 174.97 492.18 Z" id="plot1701"/>
<path d="M 197.32 498.16 232.22 507.53 226.9 528.65 188.9 528.38 197.32 498.16 Z" id="plot1702"/>
<path d="M 194.89 540.2 187.59 570.57 151.63 561.72 158.94 539.94 194.89 540.2 Z" id="plot1703"/>
<path d="M 194.89 540.2 223.89 540.4 214.57 577.21 187.59 570.57 194.89 540.2 Z" id="plot1704"/>
<path d="M 151.63 561.72 187.59 570.57 214.57 577.21 210.27 594.19 146.21 577.87 151.63 561.72 Z" id="plot1705"/>
<path d="M 146.21 577.87 210.27 594.19 205.64 612.44 171.43 603.77 140.19 595.83 146.21 577.87 Z" id="plot1706"/>
<path d="M 140.19 595.83 171.43 603.77 165.65 626.59 154.22 623.72 150.78 637.31 127.97 632.22 140.19 595.83 Z" id="plot1707"/>
<path d="M 171.43 603.77 205.64 612.44 199.86 635.26 165.65 626.59 171.43 603.77 Z" id="plot1708"/>
<path d="M 297.14 128.11 326.57 135.46 320.05 161.16 288.68 153.33 297.14 128.11 Z" id="plot1710"/>
<path d="M 191.18 669.46 156.96 660.79 162.75 637.99 196.97 646.66 191.18 669.46 Z" id="plot1711"/>
<path d="M 156.96 660.79 191.18 669.46 185.4 692.28 151.19 683.61 156.96 660.79 Z" id="plot1712"/>
<path d="M 151.19 683.61 185.4 692.28 179.63 715.09 145.41 706.42 151.19 683.61 Z" id="plot1713"/>
<path d="M 145.41 706.42 179.63 715.09 173.84 737.91 139.62 729.24 145.41 706.42 Z" id="plot1714"/>
<path d="M 139.62 729.24 173.84 737.91 168.06 760.71 133.84 752.04 139.62 729.24 Z" id="plot1715"/>
<path d="M 133.84 752.04 168.06 760.71 162.28 783.53 128.07 774.86 133.84 752.04 Z" id="plot1716"/>
<path d="M 164.22 967.84 156.81 996.63 122.59 987.96 128.76 963.62 164.22 967.84 Z" id="plot1597"/>
<path d="M 128.07 774.86 162.28 783.53 156.49 806.34 125.12 798.39 122.28 797.67 128.07 774.86 Z" id="plot1717"/>
<path d="M 105.9 826.5 106.69 826.7 148.74 836.94 143.24 858.63 98.87 853.34 105.9 826.5 Z" id="plot1719"/>
<path d="M 125.12 798.39 156.49 806.34 148.74 836.94 106.69 826.7 110.06 812.78 120.79 815.5 125.12 798.39 Z" id="plot1718"/>
<path d="M 66.17 816.38 105.9 826.5 98.87 853.34 55.5 848.18 66.17 816.38 Z" id="plot1720"/>
<path d="M 74.35 792.01 106.46 800.19 103.69 811.17 110.06 812.78 106.69 826.7 66.17 816.38 74.35 792.01 Z" id="plot1722"/>
<path d="M 82.07 769.01 115.23 777.54 110.86 794.78 108.02 794.06 106.46 800.19 74.35 792.01 82.07 769.01 Z" id="plot1723"/>
<path d="M 288.68 153.33 320.05 161.16 313.79 185.84 280.88 176.58 288.68 153.33 Z" id="plot1721"/>
<path d="M 90.14 744.96 121.29 753.64 115.23 777.54 82.07 769.01 90.14 744.96 Z" id="plot1724"/>
<path d="M 107.43 693.44 134.93 699.83 127.92 727.48 98.43 720.27 107.43 693.44 Z" id="plot1726"/>
<path d="M 117.3 664.03 142.41 670.31 134.93 699.83 107.43 693.44 117.3 664.03 Z" id="plot1727"/>
<path d="M 98.43 720.27 127.92 727.48 121.29 753.64 90.14 744.96 98.43 720.27 Z" id="plot1725"/>
<path d="M 88.17 866.32 80.88 894.16 43.49 883.99 50.91 861.86 88.17 866.32 Z" id="plot1728"/>
<path d="M 88.17 866.32 115.22 869.56 107.19 900.97 93.26 897.53 80.88 894.16 88.17 866.32 Z" id="plot1729"/>
<path d="M 115.22 869.56 139.71 872.5 139.09 874.96 131.01 906.84 107.19 900.97 115.22 869.56 Z" id="plot1730"/>
<path d="M 43.49 883.99 80.88 894.16 93.26 897.53 91.57 903.89 80.85 901.17 76.52 918.28 35.36 908.23 43.49 883.99 Z" id="plot1731"/>
<path d="M 280.88 176.58 313.79 185.84 308.09 208.31 273.17 199.54 280.88 176.58 Z" id="plot1732"/>
<path d="M 91.57 903.89 93.26 897.53 107.19 900.97 131.01 906.84 124.99 930.54 93.63 922.61 97.96 905.5 91.57 903.89 Z" id="plot1733"/>
<path d="M 359.85 802.51 398.02 811.34 392.75 832.08 354.65 822.86 359.85 802.51 Z" id="plot1621"/>
<path d="M 35.36 908.23 76.52 918.28 79.36 918.99 73.43 942.39 27.76 930.87 35.36 908.23 Z" id="plot1734"/>
<path d="M 27.76 930.87 73.43 942.39 67.68 965.11 20.5 952.49 27.76 930.87 Z" id="plot1735"/>
<path d="M 85.01 944.7 90.78 921.89 124.99 930.54 119.23 953.35 85.01 944.7 Z" id="plot1738"/>
<path d="M 119.23 953.35 113.44 976.17 79.22 967.5 85.01 944.7 119.23 953.35 Z" id="plot1737"/>
<path d="M 273.17 199.54 308.09 208.31 302.56 230.13 265.96 221.03 273.17 199.54 Z" id="plot1740"/>
<path d="M 265.96 221.03 302.56 230.13 297.23 251.13 259.12 241.41 265.96 221.03 Z" id="plot1741"/>
<path d="M 252.54 261.01 292.13 271.29 286.44 293.75 265.43 288.32 245.13 283.1 252.54 261.01 Z" id="plot1743"/>
<path d="M 648.13 159.81 613.94 151.1 619.7 128.35 654.85 133.33 648.13 159.81 Z" id="plot1744"/>
<path d="M 259.12 241.41 297.23 251.13 292.13 271.29 252.54 261.01 259.12 241.41 Z" id="plot1742"/>
<path d="M 567.66 333.65 601.87 342.3 596.08 365.11 561.87 356.45 567.66 333.65 Z" id="plot1745"/>
<path d="M 553.2 390.65 587.4 399.33 581.62 422.13 547.41 413.46 553.2 390.65 Z" id="plot1747"/>
<path d="M 587.4 399.33 553.2 390.65 558.99 367.83 593.18 376.51 587.4 399.33 Z" id="plot1746"/>
<path d="M 541.63 436.26 575.84 444.95 570.05 467.76 535.83 459.11 541.63 436.26 Z" id="plot1749"/>
<path d="M 638.8 388.08 633.02 410.9 598.81 402.22 604.58 379.41 638.8 388.08 Z" id="plot1750"/>
<path d="M 638.8 388.08 673.02 396.74 667.24 419.57 633.02 410.9 638.8 388.08 Z" id="plot1751"/>
<path d="M 598.81 402.22 633.02 410.9 627.23 433.7 593.02 425.03 598.81 402.22 Z" id="plot1752"/>
<path d="M 633.02 410.9 667.24 419.57 661.45 442.37 627.23 433.7 633.02 410.9 Z" id="plot1753"/>
<path d="M 593.02 425.03 627.23 433.7 621.46 456.51 587.24 447.84 593.02 425.03 Z" id="plot1754"/>
<path d="M 613.94 151.1 648.13 159.81 642.35 182.63 608.15 173.94 613.94 151.1 Z" id="plot1755"/>
<path d="M 627.23 433.7 661.45 442.37 655.67 465.17 621.46 456.51 627.23 433.7 Z" id="plot1756"/>
<path d="M 587.24 447.84 621.46 456.51 615.68 479.33 581.46 470.66 587.24 447.84 Z" id="plot1757"/>
<path d="M 20.5 952.49 67.68 965.11 62.11 987.06 13.5 973.36 20.5 952.49 Z" id="plot1736"/>
<path d="M 581.46 470.66 615.68 479.33 609.89 502.14 575.67 493.47 581.46 470.66 Z" id="plot1667"/>
<path d="M 619.04 322.39 653.26 331.06 647.48 353.88 613.27 345.19 619.04 322.39 Z" id="plot1760"/>
<path d="M 624.83 299.57 659.05 308.25 653.26 331.06 619.04 322.39 624.83 299.57 Z" id="plot1761"/>
<path d="M 630.62 276.77 664.84 285.44 659.05 308.25 624.83 299.57 630.62 276.77 Z" id="plot1762"/>
<path d="M 636.41 253.95 670.63 262.64 664.84 285.44 630.62 276.77 636.41 253.95 Z" id="plot1763"/>
<path d="M 642.19 231.14 676.41 239.82 670.63 262.64 636.41 253.95 642.19 231.14 Z" id="plot1764"/>
<path d="M 608.15 173.94 642.35 182.63 636.56 205.43 602.36 196.76 608.15 173.94 Z" id="plot1766"/>
<path d="M 653.77 185.52 687.98 194.19 682.19 217.01 647.98 208.34 653.77 185.52 Z" id="plot1767"/>
<path d="M 659.56 162.72 693.77 171.39 687.98 194.19 653.77 185.52 659.56 162.72 Z" id="plot1768"/>
<path d="M 547.41 413.46 581.62 422.13 575.84 444.95 541.63 436.26 546.48 417.11 547.41 413.46 Z" id="plot1748"/>
<path d="M 702.82 140.15 736.92 145.01 727.98 180.01 694.56 171.59 702.82 140.15 Z" id="plot1770"/>
<path d="M 702.82 140.15 694.56 171.59 693.77 171.39 659.56 162.72 666.58 135 702.82 140.15 Z" id="plot1769"/>
<path d="M 687.98 194.19 722.2 202.88 716.41 225.68 682.19 217.01 687.98 194.19 Z" id="plot1772"/>
<path d="M 682.19 217.01 716.41 225.68 710.62 248.5 676.41 239.82 682.19 217.01 Z" id="plot1773"/>
<path d="M 693.77 171.39 694.56 171.59 727.98 180.01 722.2 202.88 687.98 194.19 693.77 171.39 Z" id="plot1771"/>
<path d="M 621.46 456.51 655.67 465.17 649.9 488 615.68 479.33 621.46 456.51 Z" id="plot1758"/>
<path d="M 664.84 285.44 699.06 294.11 693.27 316.93 659.05 308.25 664.84 285.44 Z" id="plot1776"/>
<path d="M 704.84 271.31 699.06 294.11 664.84 285.44 670.63 262.64 704.84 271.31 Z" id="plot1775"/>
<path d="M 602.36 196.76 636.56 205.43 630.79 228.25 596.57 219.6 602.36 196.76 Z" id="plot1777"/>
<path d="M 659.05 308.25 693.27 316.93 687.48 339.73 653.26 331.06 659.05 308.25 Z" id="plot1778"/>
<path d="M 653.26 331.06 687.48 339.73 681.7 362.55 647.48 353.88 653.26 331.06 Z" id="plot1779"/>
<path d="M 647.48 353.88 681.7 362.55 675.91 385.36 641.69 376.68 647.48 353.88 Z" id="plot1780"/>
<path d="M 748.57 146.67 773.18 150.17 760.84 198.82 736.88 192.75 748.57 146.67 Z" id="plot1781"/>
<path d="M 736.88 192.75 760.84 198.82 752.58 231.41 728.62 225.33 736.88 192.75 Z" id="plot1782"/>
<path d="M 728.62 225.33 752.58 231.41 744.31 263.99 720.36 257.92 728.62 225.33 Z" id="plot1783"/>
<path d="M 712.1 290.5 736.05 296.57 727.79 329.15 703.83 323.08 712.1 290.5 Z" id="plot1785"/>
<path d="M 720.36 257.92 744.31 263.99 736.05 296.57 712.1 290.5 720.36 257.92 Z" id="plot1784"/>
<path d="M 703.83 323.08 727.79 329.15 719.52 361.76 695.57 355.68 703.83 323.08 Z" id="plot1786"/>
<path d="M 695.57 355.68 719.52 361.76 711.26 394.33 687.31 388.26 695.57 355.68 Z" id="plot1787"/>
<path d="M 700.1 438.3 676.16 432.22 684.42 399.64 708.36 405.73 700.1 438.3 Z" id="plot1789"/>
<path d="M 596.57 219.6 630.79 228.25 625 251.06 590.79 242.4 596.57 219.6 Z" id="plot1788"/>
<path d="M 676.16 432.22 700.1 438.3 691.83 470.88 667.9 464.81 676.16 432.22 Z" id="plot1790"/>
<path d="M 667.9 464.81 691.83 470.88 683.57 503.49 659.65 497.39 667.9 464.81 Z" id="plot1791"/>
<path d="M 693.89 99.89 746.07 108.67 739.7 133.8 686.92 125.99 693.89 99.89 Z" id="plot1793"/>
<path d="M 782.17 114.75 773.18 150.17 748.57 146.67 757.81 110.65 782.17 114.75 Z" id="plot1794"/>
<path d="M 629.66 89.07 661.99 94.52 654.8 121.42 622.62 116.84 629.66 89.07 Z" id="plot1795"/>
<path d="M 661.99 94.52 693.89 99.89 686.92 125.99 654.8 121.42 661.99 94.52 Z" id="plot1796"/>
<path d="M 590.79 242.4 625 251.06 619.22 273.86 585 265.23 590.79 242.4 Z" id="plot1797"/>
<path d="M 585 265.23 619.22 273.86 613.43 296.68 579.23 288.02 585 265.23 Z" id="plot1798"/>
<path d="M 579.23 288.02 613.43 296.68 607.65 319.49 573.45 310.81 579.23 288.02 Z" id="plot1799"/>
<path d="M 245.13 283.1 265.43 288.32 255.58 324.92 232.99 319.28 245.13 283.1 Z" id="plot1689"/>
<path d="M 647.98 208.34 682.19 217.01 676.41 239.82 642.19 231.14 647.98 208.34 Z" id="plot1765"/>
<path d="M 127.97 632.22 150.78 637.31 142.41 670.31 117.3 664.03 127.97 632.22 Z" id="plot1709"/>
<path d="M 573.45 310.81 607.65 319.49 601.87 342.3 567.66 333.65 571.65 317.91 573.45 310.81 Z" id="plot1800"/>
<path d="M 395.36 1306.26 402.54 1313.39 419.13 1344.55 398.35 1355.61 372.22 1332.91 395.36 1306.26 Z" id="plot1864"/>
<path d="M 402.54 1313.39 423.32 1302.34 439.91 1333.49 419.13 1344.55 402.54 1313.39 Z" id="plot1865"/>
<path d="M 262.1 1190.54 279.83 1205.97 256.72 1232.63 238.95 1217.19 262.1 1190.54 Z" id="plot1866"/>
<path d="M 244.33 1175.11 262.1 1190.54 238.95 1217.19 221.19 1201.77 244.33 1175.11 Z" id="plot1867"/>
<path d="M 613.27 345.19 647.48 353.88 641.69 376.68 607.48 368.01 613.27 345.19 Z" id="plot1759"/>
<path d="M 226.56 1159.69 244.33 1175.11 221.19 1201.77 203.42 1186.34 226.56 1159.69 Z" id="plot1868"/>
<path d="M 372.2 1156.26 413.74 1134.16 424.8 1154.93 383.26 1177.06 372.2 1156.26 Z" id="plot1869"/>
<path d="M 383.26 1177.06 424.8 1154.93 435.86 1175.7 394.33 1197.84 383.26 1177.06 Z" id="plot1870"/>
<path d="M 395.01 1224.13 446.94 1196.47 458 1217.24 406.06 1244.89 395.01 1224.13 Z" id="plot1871"/>
<path d="M 417.12 1265.67 469.06 1238.02 480.12 1258.79 428.18 1286.45 417.12 1265.67 Z" id="plot1872"/>
<path d="M 306.52 1229.12 283.37 1255.76 265.6 1240.34 288.75 1213.7 306.52 1229.12 Z" id="plot1875"/>
<path d="M 351.43 1167.32 372.2 1156.26 383.26 1177.06 394.33 1197.84 383.95 1203.37 373.56 1208.87 351.43 1167.32 Z" id="plot1876"/>
<path d="M 394.33 1197.84 435.86 1175.7 446.94 1196.47 395.01 1224.13 383.95 1203.37 394.33 1197.84 Z" id="plot1877"/>
<path d="M 330.66 1178.4 341 1197.8 308.57 1215.32 296.48 1204.8 309.72 1189.55 330.66 1178.4 Z" id="plot1873"/>
<path d="M 349.07 1250.49 395.01 1224.13 406.06 1244.89 408.9 1250.22 372.16 1270.53 349.07 1250.49 Z" id="plot1879"/>
<path d="M 352.79 1219.93 373.56 1208.87 383.95 1203.37 395.01 1224.13 349.07 1250.49 330.38 1234.24 352.79 1219.93 Z" id="plot1878"/>
<path d="M 308.57 1215.32 341 1197.8 352.79 1219.93 330.38 1234.24 308.57 1215.32 Z" id="plot1874"/>
<path d="M 372.16 1270.53 408.9 1250.22 417.12 1265.67 428.18 1286.45 404.67 1298.93 403.38 1297.64 372.16 1270.53 Z" id="plot1880"/>
<path d="M 293.29 1158.3 324.45 1141.72 335.51 1162.49 304.35 1179.08 293.29 1158.3 Z" id="plot1881"/>
<path d="M 261.16 1174.14 288.18 1148.7 293.29 1158.3 304.35 1179.08 302.23 1180.2 287.58 1197.14 261.16 1174.14 Z" id="plot1882"/>
<path d="M 330.66 1178.4 351.43 1167.32 373.56 1208.87 352.79 1219.93 341 1197.8 330.66 1178.4 Z" id="plot1884"/>
<path d="M 464.87 1280.24 485.65 1269.18 502.23 1300.33 481.46 1311.38 464.87 1280.24 Z" id="plot1885"/>
<path d="M 306.52 1229.12 324.29 1244.55 301.15 1271.2 283.37 1255.76 306.52 1229.12 Z" id="plot1886"/>
<path d="M 343.87 1078.05 375.03 1061.46 386.09 1082.23 354.93 1098.83 343.87 1078.05 Z" id="plot1887"/>
<path d="M 406.06 1244.89 458 1217.24 469.06 1238.02 417.12 1265.67 408.9 1250.22 406.06 1244.89 Z" id="plot1883"/>
<path d="M 354.93 1098.83 386.09 1082.23 397.15 1103.01 365.99 1119.6 354.93 1098.83 Z" id="plot1888"/>
<path d="M 323.78 1115.42 354.93 1098.83 365.99 1119.6 334.84 1136.19 323.78 1115.42 Z" id="plot1889"/>
<path d="M 312.72 1094.64 343.87 1078.05 354.93 1098.83 323.78 1115.42 312.72 1094.64 Z" id="plot1890"/>
<path d="M 301.66 1073.88 332.8 1057.29 343.87 1078.05 312.72 1094.64 301.66 1073.88 Z" id="plot1891"/>
<path d="M 219.81 1090.78 249.05 1075.22 260.11 1095.98 266.64 1108.25 243.99 1120.66 219.81 1090.78 Z" id="plot1893"/>
<path d="M 249.05 1075.22 280.21 1058.63 291.27 1079.39 260.11 1095.98 249.05 1075.22 Z" id="plot1892"/>
<path d="M 271.17 1116.76 302.33 1100.17 313.39 1120.94 282.23 1137.53 276.71 1127.17 271.17 1116.76 Z" id="plot1894"/>
<path d="M 260.11 1095.98 291.27 1079.39 302.33 1100.17 271.17 1116.76 266.64 1108.25 260.11 1095.98 Z" id="plot1895"/>
<path d="M 321.74 1036.52 352.9 1019.93 363.96 1040.69 332.8 1057.29 321.74 1036.52 Z" id="plot1896"/>
<path d="M 324.29 1244.55 342.06 1259.99 318.93 1286.64 301.15 1271.2 324.29 1244.55 Z" id="plot1897"/>
<path d="M 279.52 1032.34 310.68 1015.75 321.74 1036.52 290.58 1053.11 279.52 1032.34 Z" id="plot1898"/>
<path d="M 173.25 1113.4 191.02 1128.83 167.87 1155.48 150.1 1140.05 173.25 1113.4 Z" id="plot1900"/>
<path d="M 219.81 1090.78 243.99 1120.66 225.77 1143.42 196.32 1117.85 219.81 1090.78 Z" id="plot1901"/>
<path d="M 137.71 1082.54 155.48 1097.96 132.34 1124.62 114.56 1109.19 137.71 1082.54 Z" id="plot1902"/>
<path d="M 676.41 239.82 710.62 248.5 704.84 271.31 670.63 262.64 676.41 239.82 Z" id="plot1774"/>
<path d="M 187.53 1078.91 202.52 1062.94 212.36 1081.42 187.44 1110.12 171.34 1096.15 187.53 1078.91 Z" id="plot1906"/>
<path d="M 200.62 1034.34 231.79 1017.75 237.32 1028.14 242.85 1038.52 211.68 1055.11 200.62 1034.34 Z" id="plot1907"/>
<path d="M 342.06 1259.99 359.83 1275.41 336.68 1302.06 318.93 1286.64 342.06 1259.99 Z" id="plot1908"/>
<path d="M 211.68 1055.11 242.85 1038.52 253.91 1059.3 222.75 1075.89 211.68 1055.11 Z" id="plot1909"/>
<path d="M 268.46 1011.56 299.62 994.97 310.68 1015.75 279.52 1032.34 268.46 1011.56 Z" id="plot1910"/>
<path d="M 237.32 1028.14 258.08 1017.08 274.68 1048.24 253.91 1059.3 242.85 1038.52 237.32 1028.14 Z" id="plot1899"/>
<path d="M 299.62 994.97 330.78 978.38 341.84 999.15 310.68 1015.75 299.62 994.97 Z" id="plot1911"/>
<path d="M 310.68 1015.75 341.84 999.15 352.9 1019.93 321.74 1036.52 310.68 1015.75 Z" id="plot1912"/>
<path d="M 332.8 1057.29 363.96 1040.69 375.03 1061.46 343.87 1078.05 332.8 1057.29 Z" id="plot1913"/>
<path d="M 290.58 1053.11 321.74 1036.52 332.8 1057.29 301.66 1073.88 290.58 1053.11 Z" id="plot1914"/>
<path d="M 334.84 1136.19 365.99 1119.6 377.06 1140.37 345.9 1156.96 334.84 1136.19 Z" id="plot1915"/>
<path d="M 365.99 1119.6 397.15 1103.01 408.21 1123.78 377.06 1140.37 365.99 1119.6 Z" id="plot1916"/>
<path d="M 243.99 1120.66 266.64 1108.25 271.17 1116.76 276.71 1127.17 243.57 1158.86 225.77 1143.42 243.99 1120.66 Z" id="plot1918"/>
<path d="M 282.23 1137.53 313.39 1120.94 324.45 1141.72 293.29 1158.3 288.18 1148.7 282.23 1137.53 Z" id="plot1917"/>
<path d="M 359.83 1275.41 377.6 1290.84 354.45 1317.49 336.68 1302.06 359.83 1275.41 Z" id="plot1919"/>
<path d="M 191.02 1128.83 208.8 1144.25 185.65 1170.91 167.87 1155.48 191.02 1128.83 Z" id="plot1921"/>
<path d="M 155.48 1097.96 173.25 1113.4 150.1 1140.05 132.34 1124.62 155.48 1097.96 Z" id="plot1903"/>
<path d="M 208.8 1144.25 226.56 1159.69 203.42 1186.34 185.65 1170.91 208.8 1144.25 Z" id="plot1922"/>
<path d="M 377.6 1290.84 395.36 1306.26 372.22 1332.91 354.45 1317.49 377.6 1290.84 Z" id="plot1924"/>
<path d="M 444.09 1291.28 464.87 1280.24 481.46 1311.38 477.58 1313.45 460.68 1322.44 444.09 1291.28 Z" id="plot1925"/>
<path d="M 266.02 612.62 306.2 622.9 301.24 642.31 261.06 632.02 265.7 613.91 266.02 612.62 Z" id="plot1928"/>
<path d="M 261.06 632.02 301.24 642.31 296.28 661.7 256.1 651.43 260.58 633.95 261.06 632.02 Z" id="plot1929"/>
<path d="M 215.24 622.4 260.58 633.95 256.1 651.43 255.46 653.99 210.15 642.52 215.24 622.4 Z" id="plot1930"/>
<path d="M 423.32 1302.34 444.09 1291.28 460.68 1322.44 439.91 1333.49 423.32 1302.34 Z" id="plot1926"/>
<path d="M 163.88 1055.99 188.19 1036.02 202.52 1062.94 187.53 1078.91 163.88 1055.99 Z" id="plot1905"/>
<path d="M 256.1 651.43 296.28 661.7 291.33 681.1 251.14 670.83 255.46 653.99 256.1 651.43 Z" id="plot1932"/>
<path d="M 210.15 642.52 255.46 653.99 251.14 670.83 250.33 674.15 205.07 662.56 210.15 642.52 Z" id="plot1931"/>
<path d="M 199.97 682.7 245.2 694.22 241.22 709.63 240.07 714.29 194.85 702.89 199.97 682.7 Z" id="plot1936"/>
<path d="M 205.07 662.56 250.33 674.15 246.18 690.23 245.2 694.22 199.97 682.7 205.07 662.56 Z" id="plot1933"/>
<path d="M 269.66 544.48 263.4 570.63 230.54 562.24 235.98 540.63 269.66 544.48 Z" id="plot1938"/>
<path d="M 189.76 722.99 234.92 734.48 231.29 748.44 229.77 754.62 227.76 754.11 184.63 743.2 187.16 733.23 189.76 722.99 Z" id="plot1941"/>
<path d="M 184.63 743.2 227.76 754.11 222.04 775.63 177.77 770.31 184.63 743.2 Z" id="plot1942"/>
<path d="M 236.26 729.04 276.44 739.31 271.45 758.71 231.29 748.44 234.92 734.48 236.26 729.04 Z" id="plot1940"/>
<path d="M 375.48 556.58 369.48 579.87 366.03 578.99 331.83 570.25 336.45 552.13 375.48 556.58 Z" id="plot1944"/>
<path d="M 366.03 578.99 369.48 579.87 400.24 587.7 394.4 610.54 360.21 601.78 366.03 578.99 Z" id="plot1946"/>
<path d="M 375.48 556.58 407.27 560.22 400.24 587.7 369.48 579.87 375.48 556.58 Z" id="plot1945"/>
<path d="M 326.01 593.04 360.21 601.78 354.37 624.59 320.18 615.83 326.01 593.04 Z" id="plot1948"/>
<path d="M 269.66 544.48 298.4 547.77 291.38 577.78 275.93 573.83 263.4 570.63 269.66 544.48 Z" id="plot1949"/>
<path d="M 360.21 601.78 394.4 610.54 388.56 633.34 354.37 624.59 360.21 601.78 Z" id="plot1950"/>
<path d="M 320.18 615.83 354.37 624.59 348.53 647.39 314.34 638.65 320.18 615.83 Z" id="plot1951"/>
<path d="M 354.37 624.59 388.56 633.34 382.74 656.13 348.53 647.39 354.37 624.59 Z" id="plot1952"/>
<path d="M 314.34 638.65 348.53 647.39 342.71 670.18 308.52 661.44 314.34 638.65 Z" id="plot1953"/>
<path d="M 243.57 1158.86 276.71 1127.17 282.23 1137.53 288.18 1148.7 261.16 1174.14 243.57 1158.86 Z" id="plot1920"/>
<path d="M 348.53 647.39 382.74 656.13 376.9 678.94 342.71 670.18 348.53 647.39 Z" id="plot1954"/>
<path d="M 308.52 661.44 342.71 670.18 336.87 692.98 302.68 684.23 308.52 661.44 Z" id="plot1955"/>
<path d="M 342.71 670.18 376.9 678.94 371.08 701.73 336.87 692.98 342.71 670.18 Z" id="plot1956"/>
<path d="M 336.87 692.98 371.08 701.73 365.24 724.53 331.04 715.79 336.87 692.98 Z" id="plot1958"/>
<path d="M 302.68 684.23 336.87 692.98 331.04 715.79 296.84 707.05 302.68 684.23 Z" id="plot1957"/>
<path d="M 331.04 715.79 365.24 724.53 359.41 747.33 325.21 738.58 331.04 715.79 Z" id="plot1959"/>
<path d="M 298.4 547.77 324.64 550.78 316.13 584.04 291.38 577.78 298.4 547.77 Z" id="plot1960"/>
<path d="M 296.84 707.05 331.04 715.79 325.21 738.58 291.02 729.84 296.84 707.05 Z" id="plot1961"/>
<path d="M 194.85 702.89 240.07 714.29 236.26 729.04 234.92 734.48 189.76 722.99 194.85 702.89 Z" id="plot1937"/>
<path d="M 231.29 748.44 271.45 758.71 265.83 780.86 222.04 775.63 227.76 754.11 229.77 754.62 231.29 748.44 Z" id="plot1943"/>
<path d="M 325.21 738.58 359.41 747.33 353.57 770.14 319.38 761.38 325.21 738.58 Z" id="plot1963"/>
<path d="M 285.18 752.63 319.38 761.38 313.07 786.52 277.61 782.26 285.18 752.63 Z" id="plot1965"/>
<path d="M 453.27 593.16 415.84 583.66 421.43 561.84 460.07 566.26 453.27 593.16 Z" id="plot1966"/>
<path d="M 415.84 583.66 453.27 593.16 448 613.98 410.51 604.52 415.84 583.66 Z" id="plot1967"/>
<path d="M 410.51 604.52 448 613.98 442.72 634.8 405.19 625.33 410.51 604.52 Z" id="plot1968"/>
<path d="M 161.92 1057.6 163.88 1055.99 187.53 1078.91 171.34 1096.15 144.55 1072.88 161.92 1057.6 Z" id="plot1904"/>
<path d="M 405.19 625.33 442.72 634.8 437.46 655.56 399.87 646.11 405.19 625.33 Z" id="plot1969"/>
<path d="M 230.54 562.24 263.4 570.63 275.93 573.83 270.98 593.23 270.82 593.86 225.42 582.27 230.54 562.24 Z" id="plot1971"/>
<path d="M 394.56 666.82 432.22 676.33 426.96 697.06 389.28 687.58 394.56 666.82 Z" id="plot1972"/>
<path d="M 319.38 761.38 353.57 770.14 348.31 790.73 313.07 786.52 319.38 761.38 Z" id="plot1964"/>
<path d="M 418.87 728.98 380.95 720.04 386.27 699.23 424.07 708.39 418.87 728.98 Z" id="plot1973"/>
<path d="M 380.95 720.04 418.87 728.98 413.67 749.5 375.63 740.83 380.95 720.04 Z" id="plot1974"/>
<path d="M 375.63 740.83 413.67 749.5 408.46 770.05 370.34 761.5 375.63 740.83 Z" id="plot1975"/>
<path d="M 370.34 761.5 408.46 770.05 403.19 790.95 365.16 781.77 370.34 761.5 Z" id="plot1976"/>
<path d="M 365.16 781.77 403.19 790.95 398.02 811.34 359.85 802.51 365.16 781.77 Z" id="plot1977"/>
<path d="M 399.87 646.11 437.46 655.56 432.22 676.33 394.56 666.82 399.87 646.11 Z" id="plot1970"/>
<path d="M 463.76 599.58 498.07 608.05 495.73 617.28 489.95 640.09 455.74 631.42 463.76 599.58 Z" id="plot1979"/>
<path d="M 455.74 631.42 489.95 640.09 484.17 662.91 449.95 654.24 455.74 631.42 Z" id="plot1980"/>
<path d="M 449.95 654.24 484.17 662.91 478.39 685.71 444.17 677.04 449.95 654.24 Z" id="plot1981"/>
<path d="M 331.83 570.25 366.03 578.99 360.21 601.78 326.01 593.04 331.83 570.25 Z" id="plot1947"/>
<path d="M 444.17 677.04 478.39 685.71 472.61 708.53 438.39 699.89 444.17 677.04 Z" id="plot1983"/>
<path d="M 469.72 719.93 463.94 742.73 429.72 734.06 435.5 711.21 469.72 719.93 Z" id="plot1984"/>
<path d="M 429.72 734.06 463.94 742.73 458.48 764.27 458.16 765.55 423.94 756.88 429.72 734.06 Z" id="plot1985"/>
<path d="M 291.02 729.84 325.21 738.58 319.38 761.38 285.18 752.63 291.02 729.84 Z" id="plot1962"/>
<path d="M 423.94 756.88 458.16 765.55 452.37 788.36 418.16 779.69 423.94 756.88 Z" id="plot1986"/>
<path d="M 412.38 802.51 446.6 811.18 440.81 833.98 406.59 825.31 412.38 802.51 Z" id="plot1988"/>
<path d="M 418.16 779.69 452.37 788.36 446.6 811.18 412.38 802.51 418.16 779.69 Z" id="plot1987"/>
<path d="M 225.42 582.27 270.82 593.86 266.02 612.62 265.7 613.91 220.34 602.31 225.42 582.27 Z" id="plot1989"/>
<path d="M 220.34 602.31 265.7 613.91 261.06 632.02 260.58 633.95 215.24 622.4 220.34 602.31 Z" id="plot1991"/>
<path d="M 270.98 593.23 311.16 603.5 306.2 622.9 266.02 612.62 270.82 593.86 270.98 593.23 Z" id="plot1990"/>
<path d="M 507.3 571.66 501.52 594.48 498.07 608.05 463.76 599.58 471.86 567.6 507.3 571.66 Z" id="plot1978"/>
<path d="M 275.93 573.83 291.38 577.78 316.13 584.04 311.16 603.5 270.98 593.23 275.93 573.83 Z" id="plot1982"/>
<path d="M 211.91 382.08 260.9 394.43 251.65 430.93 199.95 417.74 211.91 382.08 Z" id="plot2118"/>
<path d="M 458.16 765.55 492.38 774.22 486.59 797.04 480.81 819.85 446.6 811.18 452.37 788.36 458.16 765.55 Z" id="plot2237"/>
<path d="M 250.33 674.15 251.14 670.83 291.33 681.1 286.36 700.5 283.88 710.22 243.73 699.93 245.2 694.22 246.18 690.23 250.33 674.15 Z" id="plot2583"/>
<path d="M 241.22 709.63 243.73 699.93 283.88 710.22 281.41 719.91 276.44 739.31 236.26 729.04 240.07 714.29 241.22 709.63 Z" id="plot2584"/>
<path d="M 144.5 600.86 153.69 603.97 148.19 620.24 139 617.14 144.5 600.86 Z" id="plot2114"/>
<path d="M 398.78 674.23 403.66 675.45 403.99 674.15 405.87 674.62 405.54 675.93 407.92 676.52 405.62 685.68 396.48 683.38 398.78 674.23 Z" id="plot2500"/>
<path d="M 398.78 674.23 407.92 676.52 405.62 685.68 396.48 683.38 398.78 674.23 Z" id="plot2500"/>
<path d="M 464.5 795.07 467.4 795.81 468 793.43 480.36 796.6 478.35 804.49 476.51 804.02 474.39 812.33 463.87 809.64 465.4 803.65 462.5 802.91 464.5 795.07 Z" id="plot2581"/>
<path d="M 425.23 785.37 438.72 788.87 437.62 793.15 440.98 794.02 438.89 802.11 431.75 800.25 431.31 801.93 427.1 800.85 427.55 799.16 422.03 797.73 425.23 785.37 Z" id="plot2568"/>
<path d="M 552.52 614.29 564.04 617.29 561.04 628.81 549.52 625.82 552.52 614.29 Z" id="plot2580"/>
<path d="M 209.65 737.03 226.72 739.01 225.8 747.07 208.74 745.1 209.65 737.03 Z" id="plot2582"/>
<path d="M 618.81 411.79 627.57 414.18 623.81 427.96 615.04 425.57 618.81 411.79 Z" id="plot2593"/>
<path d="M 298.01 161.73 309.88 164.73 306.88 176.59 295.01 173.6 298.01 161.73 Z" id="plot2596"/>
<path d="M 298.01 161.73 309.88 164.73 306.88 176.59 295.01 173.6 298.01 161.73 Z" id="plot2596"/>
<path d="M 701.35 361.08 715.08 364.43 713.39 371.37 699.68 367.88 701.35 361.08 Z" id="plot2606"/>
<path d="M 518.36 544.02 525.95 545.99 523.07 557.05 515.45 555.07 518.36 544.02 Z" id="plot2608"/>
<path d="M 216.81 691.78 214.35 700.6 209.65 699.28 209.68 699.21 206.57 698.35 207.49 695.06 208.81 695.43 210.32 689.97 216.81 691.78 Z" id="plot2597"/>
<path d="M 216.81 691.78 214.35 700.6 207.88 698.79 209.08 694.47 208.47 694.29 209.7 689.88 211.78 690.45 211.81 690.38 216.81 691.78 Z" id="plot2597"/>
<path d="M 213.42 711.85 210.84 722.24 199.81 719.52 202.38 709.12 213.42 711.85 Z" id="plot2613"/>
<path d="M 202.38 709.12 213.42 711.85 211.38 720.07 200.35 717.34 202.38 709.12 Z" id="plot2613"/>
<path d="M 233.53 610.36 243.84 612.67 241.27 624.16 231.53 621.99 232.67 616.87 232.1 616.75 233.53 610.36 Z" id="plot2617"/>
<path d="M 228.7 474.68 226.62 482.27 215.44 479.19 215.5 479 212.74 478.24 214.75 470.93 217.51 471.69 217.54 471.6 222.41 472.94 222.76 471.66 225.41 472.39 225.06 473.67 228.7 474.68 Z" id="plot2666"/>
<path d="M 177.24 590.72 179.98 591.43 192.06 594.55 189.52 604.34 177.44 601.23 174.71 600.52 177.24 590.72 Z" id="plot2674"/>
<path d="M 641.66 417.86 651.17 420.25 647.55 434.64 638.05 432.25 641.66 417.86 Z" id="plot2698"/>
<path d="M 214.95 1041.31 211.03 1034.05 219.3 1029.58 223.22 1036.84 214.95 1041.31 Z" id="plot2700"/>
<path d="M 596.98 433.37 608.45 436.3 605.55 447.71 594.08 444.78 596.98 433.37 Z" id="plot2703"/>
<path d="M 70.47 822.04 88.4 826.02 84.42 843.92 76.88 842.24 79.18 831.88 68.8 829.57 70.47 822.04 Z" id="plot2704"/>
<path d="M 166.84 692.91 178.43 695.84 176.43 703.75 171.54 702.52 170.98 704.72 168.67 704.14 169.22 701.93 164.84 700.81 166.84 692.91 Z" id="plot2707"/>
<path d="M 162.55 714.93 164.38 715.39 164.4 715.32 173.15 717.53 171.15 725.45 168.67 724.82 168.12 727.01 165.82 726.44 166.37 724.25 162.4 723.25 162.42 723.12 160.61 722.66 162.55 714.93 Z" id="plot2706"/>
<path d="M 487.65 667.51 499.66 670.69 497.05 680.91 484.92 677.76 487.65 667.51 Z" id="plot2710"/>
<path d="M 95.97 1074.82 103.78 1065.71 108.51 1069.77 106.95 1071.59 111.7 1075.68 105.45 1082.95 95.97 1074.82 Z" id="plot2719"/>
<path d="M 743.24 240.72 736.71 238.95 738.46 232.48 744.99 234.25 743.24 240.72 Z" id="plot2729"/>
<path d="M 743.24 240.72 735.84 238.72 737.36 233.12 744.76 235.12 743.24 240.72 Z" id="plot2729"/>
<path d="M 129.04 639.53 142.92 642.78 140.47 653.28 126.58 650.04 129.04 639.53 Z" id="plot2819"/>
<path d="M 177.33 547.88 186.83 548.05 186.75 555.32 184.39 555.27 184.32 558.76 177.14 558.64 177.33 547.88 Z" id="plot2864"/>
<path d="M 329.72 674.28 336.6 676.06 334.19 685.29 327.32 683.49 329.72 674.28 Z" id="plot2858"/>
<path d="M 342.65 689.65 345.5 678.35 354.56 680.75 354.04 682.82 355.39 683.18 355.05 684.63 353.68 684.27 352.6 688.54 353.92 688.89 353.57 690.34 352.24 689.98 351.71 692.05 342.65 689.65 Z" id="plot2867"/>
<path d="M 559.31 646.11 561.18 639.06 570.48 641.53 568.61 648.57 559.31 646.11 Z" id="plot2870"/>
<path d="M 250.39 288.2 260.69 290.96 257.79 301.73 247.5 298.96 250.39 288.2 Z" id="plot2868"/>
<path d="M 250.39 288.2 260.69 290.96 257.79 301.73 247.5 298.96 250.39 288.2 Z" id="plot2868"/>
<path d="M 678.46 520.86 674.73 534.36 671.18 533.38 674.92 519.89 678.46 520.86 Z" id="plot2869"/>
<path d="M 761.35 157.02 762.61 152.07 768.65 153.61 767.41 158.55 761.35 157.02 Z" id="plot2876"/>
<path d="M 761.35 157.02 762.61 152.07 767.62 153.34 766.37 158.29 761.35 157.02 Z" id="plot2876"/>
<path d="M 368.78 867.61 371.33 857.41 373.57 857.96 381.5 859.89 379.01 870.08 371.04 868.17 368.78 867.61 Z" id="plot2883"/>
<path d="M 216.44 794.62 213.94 804.42 202.38 801.47 204.89 791.67 216.44 794.62 Z" id="plot2885"/>
<path d="M 682.68 172.24 681.47 176.99 680.39 176.72 678.02 186.06 668.59 183.65 670.98 174.32 669.85 174.03 671.06 169.27 682.68 172.24 Z" id="plot2888"/>
<path d="M 673.5 371.4 671.18 380.5 659.76 377.6 662.06 368.5 673.5 371.4 Z" id="plot2886"/>
<path d="M 673.5 371.4 671.18 380.5 659.76 377.6 662.06 368.5 673.5 371.4 Z" id="plot2886"/>
<path d="M 493.9 694.56 491.21 705.1 479.27 702.07 481.95 691.53 493.9 694.56 Z" id="plot2890"/>
<path d="M 612.63 713.27 616.27 699.02 627.65 701.93 624.01 716.16 612.63 713.27 Z" id="plot2891"/>
<path d="M 639.12 162.13 637.14 170.3 622.22 166.68 624.2 158.52 639.12 162.13 Z" id="plot2887"/>
<path d="M 335.98 601.3 347.07 604.43 345.25 610.89 334.2 607.83 335.98 601.3 Z" id="plot2898"/>
<path d="M 671.99 194.63 668.06 208.9 658.2 206.19 662.13 191.92 671.99 194.63 Z" id="plot2900"/>
</g>
</svg>